<?xml version="1.0" encoding="UTF-8"?>
<svg version="1.1" xmlns="http://www.w3.org/2000/svg" width="1024" height="1024">
<path d="M0 0 C0.62680664 0.48758789 1.25361328 0.97517578 1.89941406 1.47753906 C3.66173025 2.83639972 5.44156369 4.16610131 7.234375 5.484375 C8.28882813 6.26039063 9.34328125 7.03640625 10.4296875 7.8359375 C11.79673828 8.83947266 11.79673828 8.83947266 13.19140625 9.86328125 C19.97513124 15.27571727 25.90637931 21.0853344 27 30 C27.29743385 35.77021666 26.19767601 40.21976721 22.7421875 44.8984375 C19.06057049 48.65461891 15.11222741 50.69835797 9.83984375 51.0234375 C0.20922074 50.44954563 -6.14803329 44.50799462 -13.08203125 38.41796875 C-31.6157256 22.23031166 -53.65890557 6.05007435 -79.26806641 7.66894531 C-88.17500727 8.69624892 -94.85556629 15.2118097 -100.2578125 21.8984375 C-136.27772246 71.79318944 -125.27844226 155.04771121 -116.2578125 211.8984375 C-115.22440837 217.97585474 -114.0481381 224.02608554 -112.78198242 230.05908203 C-111.80101611 234.75491995 -110.97215677 239.06677482 -111.2578125 243.8984375 C-110.2678125 243.8984375 -109.2778125 243.8984375 -108.2578125 243.8984375 C-107.855625 243.0321875 -107.855625 243.0321875 -107.4453125 242.1484375 C-106.22852061 239.84293707 -104.95447371 237.87787558 -103.2578125 235.8984375 C-102.5978125 235.8984375 -101.9378125 235.8984375 -101.2578125 235.8984375 C-100.86142578 235.00898437 -100.86142578 235.00898437 -100.45703125 234.1015625 C-99.21410825 231.81814696 -97.95379604 230.42417027 -96.0703125 228.6484375 C-91.2452585 223.96382166 -86.89601531 218.90671592 -82.6328125 213.7109375 C-80.29367658 210.94090812 -77.83195448 208.45159524 -75.2578125 205.8984375 C-74.09890384 204.73116526 -72.94119548 203.5627006 -71.78442383 202.39331055 C-68.30054492 198.87394935 -64.81066445 195.360607 -61.31860352 191.84936523 C-59.81259847 190.33322094 -58.30838142 188.81529864 -56.8059082 187.2956543 C-54.63436513 185.0999856 -52.45654384 182.91072212 -50.27734375 180.72265625 C-49.60339066 180.03838058 -48.92943756 179.35410492 -48.23506165 178.64909363 C-47.6106871 178.02456802 -46.98631256 177.40004242 -46.34301758 176.7565918 C-45.79406326 176.20319626 -45.24510895 175.64980072 -44.67951965 175.07963562 C-43.2578125 173.8984375 -43.2578125 173.8984375 -41.2578125 173.8984375 C-41.2578125 173.2384375 -41.2578125 172.5784375 -41.2578125 171.8984375 C-39.9296875 170.55859375 -39.9296875 170.55859375 -38.0078125 168.9609375 C-34.92852211 166.34869997 -31.92002973 163.68324007 -28.96240234 160.93359375 C-23.84591485 156.17774699 -18.60900431 151.65442516 -13.1640625 147.2734375 C-9.84826036 144.56374973 -6.61751534 141.76629819 -3.3828125 138.9609375 C2.62688701 133.77077972 8.81766471 128.88413168 15.15527344 124.10302734 C17.76552509 122.12164555 20.34346234 120.09852625 22.9296875 118.0859375 C36.77474465 107.41114871 51.09234892 97.43250953 65.7421875 87.8984375 C66.47985352 87.41552246 67.21751953 86.93260742 67.97753906 86.43505859 C85.87492884 74.75691428 104.50166413 64.08052544 123.78027344 54.84472656 C125.89369228 53.82536227 127.99340825 52.78039864 130.09375 51.734375 C142.64911387 45.55280046 155.56352102 40.58465491 168.7421875 35.8984375 C169.55429687 35.60888184 170.36640625 35.31932617 171.203125 35.02099609 C182.86227542 30.8984375 182.86227542 30.8984375 187.7421875 30.8984375 C187.7421875 29.9084375 187.7421875 28.9184375 187.7421875 27.8984375 C188.3211377 28.07947021 188.90008789 28.26050293 189.49658203 28.44702148 C191.94429206 28.93906495 193.2754315 28.74116266 195.671875 28.12109375 C223.18003275 21.62185119 251.16738523 22.22323071 275.7421875 36.8984375 C278.56140915 38.75252021 281.17198958 40.71766351 283.7421875 42.8984375 C284.53496094 43.48496094 285.32773437 44.07148438 286.14453125 44.67578125 C299.75761941 56.32367172 306.30026481 74.89533943 309.7421875 91.8984375 C309.979375 92.94515625 310.2165625 93.991875 310.4609375 95.0703125 C316.0164783 124.45619937 308.62665232 157.91566593 298.7421875 185.6484375 C298.4222583 186.55327881 298.1023291 187.45812012 297.77270508 188.39038086 C294.45794982 197.35317812 290.43471637 205.75749941 281.38671875 210.00390625 C276.20740488 211.7558455 270.51374118 212.01258366 265.390625 209.953125 C260.49999435 207.04072697 257.29861564 203.56660003 254.4296875 198.6484375 C252.39393257 190.50541778 256.10452348 182.56647843 258.9921875 175.0859375 C263.06048803 164.16220007 266.36886238 153.30986884 268.7421875 141.8984375 C268.98710938 140.74214844 269.23203125 139.58585938 269.484375 138.39453125 C273.13191931 117.6335085 272.76941464 93.73476092 260.3359375 75.87890625 C256.21266844 70.66998921 251.52697834 67.15135992 244.8046875 66.1484375 C243.7940625 66.0659375 242.7834375 65.9834375 241.7421875 65.8984375 C241.7421875 65.2384375 241.7421875 64.5784375 241.7421875 63.8984375 C201.83473252 64.42165801 164.27876727 79.86205041 129.7421875 98.8984375 C129.02659668 99.29063477 128.31100586 99.68283203 127.57373047 100.08691406 C118.46499237 105.0919923 109.51838368 110.32714193 100.7421875 115.8984375 C100.09668945 116.30819824 99.45119141 116.71795898 98.78613281 117.14013672 C79.41740523 129.47775086 60.85734088 142.6319725 42.99609375 157.078125 C41.42895672 158.34378506 39.85271078 159.5982154 38.26953125 160.84375 C33.08862287 164.92761905 28.15174708 169.19233819 23.28125 173.640625 C20.80907484 175.83895922 18.2694446 177.90321509 15.6796875 179.9609375 C9.88262127 184.6463504 4.49905808 189.73234684 -0.89282227 194.87524414 C-4.59271156 198.40294341 -8.32953399 201.8705913 -12.1484375 205.26953125 C-17.42340794 209.99566962 -22.44971376 214.94229987 -27.4453125 219.9609375 C-28.29544922 220.80720703 -29.14558594 221.65347656 -30.02148438 222.52539062 C-34.437826 226.94855286 -38.68943828 231.444872 -42.76293945 236.18530273 C-44.66277148 238.36252326 -46.68440703 240.38692473 -48.7578125 242.3984375 C-52.80644884 246.40631576 -56.55564466 250.57223 -60.2578125 254.8984375 C-61.23612122 256.02548487 -62.21537375 257.15171335 -63.1953125 258.27734375 C-73.44232494 270.05171784 -83.5612708 281.86813098 -93.140625 294.1953125 C-95.2578125 296.8984375 -95.2578125 296.8984375 -96.2578125 297.8984375 C-95.80398747 303.31523713 -94.73103318 308.27944274 -93.0703125 313.45703125 C-92.85222427 314.15448959 -92.63413605 314.85194794 -92.40943909 315.57054138 C-91.7002666 317.82830639 -90.98001461 320.08230917 -90.2578125 322.3359375 C-90.010383 323.11398743 -89.76295349 323.89203735 -89.50802612 324.69366455 C-74.90156908 370.59698507 -55.94113294 415.08670306 -32.6328125 457.2734375 C-32.21878174 458.02318848 -31.80475098 458.77293945 -31.37817383 459.54541016 C-29.84589457 462.2731189 -28.48121312 464.67503688 -26.2578125 466.8984375 C-25.57734515 468.55951739 -24.91215553 470.22689408 -24.2578125 471.8984375 C-23.42097228 473.40185966 -22.54668911 474.88490966 -21.640625 476.34765625 C-21.12250244 477.18627197 -20.60437988 478.0248877 -20.07055664 478.88891602 C-19.51360107 479.77893311 -18.95664551 480.6689502 -18.3828125 481.5859375 C-17.80200928 482.51784912 -17.22120605 483.44976074 -16.62280273 484.40991211 C-1.78817749 508.09255464 14.13071256 531.19127071 31.7421875 552.8984375 C32.77085937 554.19007813 32.77085937 554.19007813 33.8203125 555.5078125 C38.92649593 561.86299044 44.32226985 567.87023518 49.88671875 573.8203125 C52.31532347 576.42130085 54.66299193 579.08273613 56.9921875 581.7734375 C59.99787653 585.17493743 63.16879322 588.17696766 66.63671875 591.1015625 C68.92372986 593.05337161 71.10553431 595.09831783 73.3046875 597.1484375 C88.19779964 610.51580268 107.33602493 625.06927225 128.32421875 624.86328125 C136.55153803 623.87676916 144.11018627 621.33315196 149.5546875 614.8359375 C150.6375 613.381875 150.6375 613.381875 151.7421875 611.8984375 C152.36609375 611.32480469 152.99 610.75117187 153.6328125 610.16015625 C178.77862131 583.19826125 175.59976674 527.4977483 174.44906616 493.39381409 C172.18947976 434.26190141 163.40788643 372.81151039 146.23583984 316.08764648 C145.6828597 313.63533544 145.65656816 311.40432212 145.7421875 308.8984375 C145.0821875 308.5684375 144.4221875 308.2384375 143.7421875 307.8984375 C143.23461914 305.88891602 143.23461914 305.88891602 142.83984375 303.21484375 C141.69691513 296.30699657 139.96233289 289.60263887 138.1796875 282.8359375 C137.70499023 281.00385742 137.70499023 281.00385742 137.22070312 279.13476562 C135.86635102 273.37836715 135.86635102 273.37836715 133.7421875 267.8984375 C132.95880717 261.25089588 133.25567313 256.0481019 137.2578125 250.55078125 C141.28350917 246.06954522 145.89326071 243.98891538 151.7421875 242.8984375 C158.43149281 242.68109545 163.63541294 244.56806764 168.7421875 248.8984375 C172.2094742 252.69020634 173.63012677 255.950944 174.96875 260.890625 C175.15770844 261.57561066 175.34666687 262.26059631 175.54135132 262.96633911 C176.16250836 265.23216893 176.76529921 267.50241943 177.3671875 269.7734375 C177.80401574 271.38950464 178.24152963 273.0053866 178.6796875 274.62109375 C179.82585521 278.86593974 180.95354466 283.11545692 182.07434082 287.36706543 C182.71944612 289.81223974 183.36850663 292.25633103 184.01855469 294.70019531 C205.56608328 375.88316654 222.96109754 460.44202906 217.7421875 544.8984375 C217.68691895 545.81206055 217.63165039 546.72568359 217.57470703 547.66699219 C215.0396616 586.34618394 206.02291218 626.15405414 177.4453125 654.1484375 C162.02707461 667.39363515 142.24877873 673.40971389 122.14746094 672.12158203 C109.09664212 670.91081788 97.41738382 666.65824515 85.7421875 660.8984375 C84.81535156 660.46015625 83.88851563 660.021875 82.93359375 659.5703125 C68.13415169 652.09175121 55.02424212 640.91516015 42.7421875 629.8984375 C42.21979492 629.43244141 41.69740234 628.96644531 41.15917969 628.48632812 C34.65861059 622.67800615 28.35927916 616.78590619 22.5546875 610.2734375 C19.31139883 606.64289048 16.03802165 603.04381164 12.7421875 599.4609375 C4.66079003 590.56022784 -2.66891102 581.14022144 -9.91723633 571.56005859 C-10.4511499 570.85574707 -10.98506348 570.15143555 -11.53515625 569.42578125 C-12.01202881 568.79406006 -12.48890137 568.16233887 -12.98022461 567.51147461 C-14.3079972 565.77140367 -14.3079972 565.77140367 -16.2578125 563.8984375 C-17.19727571 562.5599854 -18.11077964 561.20318919 -19.0078125 559.8359375 C-19.53503906 559.041875 -20.06226563 558.2478125 -20.60546875 557.4296875 C-21.71350937 555.73226357 -22.80456271 554.02363717 -23.87890625 552.3046875 C-24.39582031 551.49 -24.91273438 550.6753125 -25.4453125 549.8359375 C-25.91324219 549.08183594 -26.38117188 548.32773437 -26.86328125 547.55078125 C-27.55357422 546.73287109 -27.55357422 546.73287109 -28.2578125 545.8984375 C-29.2478125 545.8984375 -30.2378125 545.8984375 -31.2578125 545.8984375 C-31.32226562 545.05410156 -31.38671875 544.20976563 -31.453125 543.33984375 C-32.46970973 538.99221684 -34.45563904 536.33598156 -37.1328125 532.8359375 C-38.02773376 531.63798095 -38.92099807 530.43878459 -39.8125 529.23828125 C-40.23756836 528.67093262 -40.66263672 528.10358398 -41.10058594 527.51904297 C-42.2578125 525.8984375 -42.2578125 525.8984375 -43.890625 523.08984375 C-45.21770746 520.62738963 -45.21770746 520.62738963 -48.2578125 518.8984375 C-48.2578125 517.9084375 -48.2578125 516.9184375 -48.2578125 515.8984375 C-49.65674322 513.31646043 -51.09362389 510.8312172 -52.6328125 508.3359375 C-53.0453125 507.65080078 -53.4578125 506.96566406 -53.8828125 506.25976562 C-55.5429831 503.53119492 -56.98919403 501.16705597 -59.2578125 498.8984375 C-59.5878125 497.8878125 -59.9178125 496.8771875 -60.2578125 495.8359375 C-60.91533806 492.77692944 -60.91533806 492.77692944 -63.2578125 491.8984375 C-64.19399445 490.2228507 -65.05599233 488.50560267 -65.8828125 486.7734375 C-68.35485995 481.72608755 -70.85292267 476.69777901 -73.4453125 471.7109375 C-73.77805176 471.0514209 -74.11079102 470.3919043 -74.45361328 469.71240234 C-76.40252921 465.77763723 -76.40252921 465.77763723 -80.2578125 463.8984375 C-80.3815625 462.8053125 -80.5053125 461.7121875 -80.6328125 460.5859375 C-81.01246051 456.82461948 -81.01246051 456.82461948 -83.2578125 453.8984375 C-83.2578125 452.9084375 -83.2578125 451.9184375 -83.2578125 450.8984375 C-84.2478125 451.2284375 -85.2378125 451.5584375 -86.2578125 451.8984375 C-86.47179687 450.65835937 -86.68578125 449.41828125 -86.90625 448.140625 C-88.27995395 441.97940643 -91.06227743 436.63459878 -93.8828125 431.0234375 C-97.62373394 423.40573392 -101.29926372 415.79360799 -104.5703125 407.9609375 C-104.88476318 407.20876953 -105.19921387 406.45660156 -105.52319336 405.68164062 C-107.13111681 401.78108596 -108.65799558 397.85804376 -110.125 393.90234375 C-110.58459106 392.67535767 -110.58459106 392.67535767 -111.0534668 391.42358398 C-111.62808106 389.87717478 -112.1904396 388.32612833 -112.73754883 386.76977539 C-114.12270225 383.0260123 -115.08959056 381.06215137 -118.02734375 378.203125 C-118.76339844 377.44257812 -119.49945313 376.68203125 -120.2578125 375.8984375 C-120.09571289 375.16230225 -119.93361328 374.42616699 -119.76660156 373.66772461 C-119.08674325 369.96732497 -120.04836178 367.79806352 -121.34765625 364.28515625 C-121.57103165 363.67074173 -121.79440704 363.05632721 -122.02455139 362.42329407 C-122.73659301 360.4730366 -123.46560955 358.52964675 -124.1953125 356.5859375 C-124.68277703 355.26018292 -125.16911774 353.93401454 -125.65429688 352.60742188 C-126.84249376 349.36620077 -128.04599121 346.13091139 -129.2578125 342.8984375 C-131.78466476 346.64441305 -134.30313384 350.39595618 -136.8203125 354.1484375 C-137.87702148 355.71464844 -137.87702148 355.71464844 -138.95507812 357.3125 C-143.17824369 363.61805596 -147.13161433 369.99444395 -150.82788086 376.62402344 C-152.2578125 378.8984375 -152.2578125 378.8984375 -154.2578125 379.8984375 C-154.94433384 381.55702445 -155.60610205 383.22586592 -156.2578125 384.8984375 C-157.52391961 387.20922491 -158.81396579 389.49337285 -160.1328125 391.7734375 C-173.93141955 416.11907615 -185.42569096 440.97098254 -194.3828125 467.5234375 C-194.74914795 468.60657227 -195.1154834 469.68970703 -195.49291992 470.80566406 C-197.42016754 476.70748607 -198.88351921 482.50065109 -199.85888672 488.63427734 C-200.2578125 490.8984375 -200.2578125 490.8984375 -201.2578125 493.8984375 C-205.32673265 511.94504709 -208.03279428 534.39936505 -197.765625 550.9375 C-189.78791919 561.31265108 -179.65595967 564.6477335 -167.17578125 566.30859375 C-139.91180365 569.06990464 -112.93068004 559.52471542 -88.1328125 549.20703125 C-80.90162026 546.21393163 -74.80439492 544.30094239 -67.07421875 546.52734375 C-61.54940473 548.85632962 -58.04726786 552.64662903 -55.2578125 557.8984375 C-52.74656556 564.24601487 -52.80022464 570.48640242 -54.71484375 577.0078125 C-59.98271651 586.87673868 -74.36017042 591.80858109 -84.2578125 595.8984375 C-84.9398877 596.18428711 -85.62196289 596.47013672 -86.32470703 596.76464844 C-100.83678935 602.74825581 -115.95695259 606.51471222 -131.2578125 609.8984375 C-132.370354 610.1444873 -132.370354 610.1444873 -133.50537109 610.39550781 C-158.8026699 615.64777222 -190.78699882 613.846464 -212.8984375 599.5390625 C-214.06632812 598.72695312 -214.06632812 598.72695312 -215.2578125 597.8984375 C-216.07765625 597.33640625 -216.8975 596.774375 -217.7421875 596.1953125 C-229.6973544 587.35888479 -238.99593063 573.81809672 -243.2578125 559.55078125 C-243.7528125 558.23787109 -243.7528125 558.23787109 -244.2578125 556.8984375 C-245.2478125 556.5684375 -246.2378125 556.2384375 -247.2578125 555.8984375 C-247.06316406 555.2796875 -246.86851562 554.6609375 -246.66796875 554.0234375 C-246.07413009 549.49895244 -246.95142256 545.37446612 -247.6953125 540.8984375 C-248.93590701 532.7917464 -249.63269133 525.10919818 -249.2578125 516.8984375 C-249.21358953 515.20836569 -249.17074122 513.51825761 -249.12890625 511.828125 C-249.0695343 509.97650305 -249.00832852 508.12493901 -248.9453125 506.2734375 C-248.92307617 505.41427734 -248.90083984 504.55511719 -248.87792969 503.66992188 C-248.64002013 498.05011229 -247.64454911 493.0454643 -246.05834961 487.65380859 C-245.28169535 484.98063995 -244.62492487 482.30687034 -244.00390625 479.59375 C-241.32734307 468.11129394 -238.09962485 456.91462122 -234.2578125 445.7734375 C-233.8548999 444.60184082 -233.4519873 443.43024414 -233.03686523 442.22314453 C-230.4647036 434.91289908 -227.56748644 427.83033436 -224.39453125 420.76611328 C-223.07356449 417.94774814 -223.07356449 417.94774814 -223.2578125 414.8984375 C-222.5978125 414.8984375 -221.9378125 414.8984375 -221.2578125 414.8984375 C-221.08693115 414.34953857 -220.9160498 413.80063965 -220.73999023 413.23510742 C-218.96081568 407.69104608 -216.83865455 402.45729455 -214.3203125 397.2109375 C-213.93262695 396.40060059 -213.54494141 395.59026367 -213.14550781 394.75537109 C-200.22016189 368.09747972 -184.40502749 343.02203546 -167.2578125 318.8984375 C-166.52175781 317.85558594 -165.78570312 316.81273437 -165.02734375 315.73828125 C-164.20845682 314.58324578 -163.38944271 313.42830046 -162.5703125 312.2734375 C-162.15934326 311.68989502 -161.74837402 311.10635254 -161.32495117 310.50512695 C-158.94923765 307.16144662 -156.49319708 303.91654475 -153.9140625 300.7265625 C-153.35807373 300.02611816 -152.80208496 299.32567383 -152.22924805 298.60400391 C-151.14768069 297.24754812 -150.04821203 295.90511771 -148.92895508 294.57958984 C-146.33410693 291.29631259 -144.84613555 289.12798441 -145.328125 284.859375 C-145.60734414 283.53223627 -145.91694151 282.21109415 -146.2578125 280.8984375 C-146.50660156 279.7021875 -146.75539063 278.5059375 -147.01171875 277.2734375 C-147.27855469 276.1596875 -147.54539062 275.0459375 -147.8203125 273.8984375 C-148.08972656 272.7640625 -148.35914063 271.6296875 -148.63671875 270.4609375 C-148.84167969 269.6153125 -149.04664063 268.7696875 -149.2578125 267.8984375 C-149.9178125 267.8984375 -150.5778125 267.8984375 -151.2578125 267.8984375 C-151.5878125 266.2484375 -151.9178125 264.5984375 -152.2578125 262.8984375 C-151.5978125 262.8984375 -150.9378125 262.8984375 -150.2578125 262.8984375 C-150.4436792 261.9911792 -150.6295459 261.0839209 -150.82104492 260.14916992 C-155.42851374 237.49518994 -159.46443043 214.85151141 -162.2578125 191.8984375 C-162.34138 191.22051147 -162.42494751 190.54258545 -162.51104736 189.84411621 C-169.55749056 132.14016496 -172.62729976 52.9426223 -136.11621094 3.91967773 C-134.22833236 1.52141751 -132.25888471 -0.79729753 -130.2578125 -3.1015625 C-129.57847656 -3.9678125 -128.89914062 -4.8340625 -128.19921875 -5.7265625 C-92.40694034 -49.51268981 -36.99522237 -28.62786212 0 0 Z M-119.2578125 373.8984375 C-118.5978125 374.5584375 -117.9378125 375.2184375 -117.2578125 375.8984375 C-117.2578125 375.2384375 -117.2578125 374.5784375 -117.2578125 373.8984375 C-117.9178125 373.8984375 -118.5778125 373.8984375 -119.2578125 373.8984375 Z M-117.2578125 375.8984375 C-116.2578125 377.8984375 -116.2578125 377.8984375 -116.2578125 377.8984375 Z " fill="#1CA134" transform="translate(480.2578125,164.1015625)"/>
<path d="M0 0 C1.60536111 0.50882916 3.21099651 1.0167937 4.81689453 1.52392578 C9.47229393 3.00385312 14.1131773 4.52548557 18.75 6.0625 C19.94399414 6.45679199 21.13798828 6.85108398 22.36816406 7.25732422 C39.9340012 13.13824553 56.87540314 20.46113576 73.75 28.0625 C74.7404834 28.5073877 75.7309668 28.95227539 76.75146484 29.41064453 C90.89168195 35.81163791 104.33620044 43.26899375 117.75 51.0625 C119.31742747 51.96272879 120.88511805 52.86249968 122.453125 53.76171875 C161.56854027 76.32544976 201.06958746 105.42387619 226.75 143.0625 C227.4925 144.14273438 228.235 145.22296875 229 146.3359375 C241.02926369 164.78992157 246.54230878 187.12706512 242.50390625 208.95703125 C238.54418319 225.26780758 229.49824696 240.97036972 216.75 252.0625 C216.09 252.0625 215.43 252.0625 214.75 252.0625 C214.75 252.7225 214.75 253.3825 214.75 254.0625 C190.24019757 275.6226987 150.37339262 294.72548504 117.2109375 294.27734375 C110.87543821 293.72424461 106.78612614 290.77131383 102.75 286.0625 C98.95167235 280.22935396 97.85181723 276.03362311 98.75 269.0625 C100.93627596 263.60623371 104.71925409 259.12771894 109.75 256.0625 C113.57155668 254.63533655 117.48144295 253.66912743 121.4375 252.6875 C146.74919963 245.98242617 169.97749545 236.71652192 189.75 219.0625 C190.08 218.4025 190.41 217.7425 190.75 217.0625 C191.41 217.0625 192.07 217.0625 192.75 217.0625 C193.02714844 216.33160156 193.30429687 215.60070312 193.58984375 214.84765625 C194.6694287 212.25592538 195.93018283 209.93865506 197.3125 207.5 C201.81096781 198.52968254 201.64146227 188.54969418 198.75 179.0625 C193.9689712 167.14911677 186.29013246 157.4067909 177.53515625 148.15625 C175.75 146.0625 175.75 146.0625 174.75 143.0625 C173.43908325 142.352768 172.10185562 141.6907584 170.75 141.0625 C168.91196721 139.57230997 167.18252691 137.99546995 165.43359375 136.40234375 C163.67781556 134.84771084 163.67781556 134.84771084 160.75 134.0625 C160.08333333 132.72916667 159.41666667 131.39583333 158.75 130.0625 C145.3508103 117.12348449 128.67146191 106.60064642 112.75 97.0625 C111.5062094 96.30909047 110.26271739 95.55518777 109.01953125 94.80078125 C105.92177922 92.92622321 102.81281589 91.07124098 99.69921875 89.22314453 C97.65972021 88.00874372 95.62669728 86.78392538 93.59375 85.55859375 C84.18834385 79.91772244 74.66040135 74.75844123 64.75 70.0625 C63.46125977 69.45003418 63.46125977 69.45003418 62.14648438 68.82519531 C38.20476954 57.50866647 13.86689132 47.87239348 -11.23095703 39.47705078 C-37.8105669 30.58463481 -37.8105669 30.58463481 -42.37890625 23.25 C-44.78482683 17.89871477 -44.63321371 12.69956957 -43.25 7.0625 C-34.09113585 -10.91601111 -15.50307104 -5.03934622 0 0 Z " fill="#1DA134" transform="translate(641.25,350.9375)"/>
<path d="M0 0 C3.70493292 3.91464611 4.2837905 7.76209146 4.5 13.0625 C4.2495226 19.75859594 2.18146387 22.84210132 -2.53125 27.50390625 C-6.53231461 30.78021075 -10.893871 31.52512316 -15.875 32.5 C-16.83390137 32.70375244 -17.79280273 32.90750488 -18.78076172 33.11743164 C-21.85008047 33.76513392 -24.92369686 34.38638084 -28 35 C-76.81139456 43.88085915 -76.81139456 43.88085915 -114.1796875 73.7578125 C-119.69940886 83.38710743 -119.78217681 94.51998682 -117 105 C-114.70830557 112.65038291 -110.82328434 118.69338381 -106 125 C-105.35675781 125.84820312 -104.71351563 126.69640625 -104.05078125 127.5703125 C-100.16911413 132.55775906 -96.07797145 137.08067295 -91.46875 141.40625 C-90 143 -90 143 -90 145 C-89.43667969 145.24363281 -88.87335938 145.48726562 -88.29296875 145.73828125 C-85.56660719 147.23847679 -83.58456625 149.06178262 -81.3125 151.1875 C-78.05319856 154.19682552 -74.77644155 156.95781667 -71.1875 159.5625 C-66.15685938 163.46035452 -62.5474583 167.26877933 -61.59765625 173.7421875 C-61.41381173 179.16927759 -61.74678724 183.48747907 -65 188 C-69.54257062 192.65473286 -73.61805028 195.60212356 -80.1875 196.375 C-100.68622201 194.35873226 -122.5953066 171.82512138 -135 157 C-136.485 156.01 -136.485 156.01 -138 155 C-138.70460885 153.68632249 -139.36303727 152.34777621 -140 151 C-141.01646859 149.42244075 -142.03458542 147.84583014 -143.07128906 146.28149414 C-156.32071146 126.2564247 -164.98734369 104.0130145 -160.890625 79.6953125 C-154.8631983 54.68677891 -139.59463808 36.1287889 -117.96484375 22.859375 C-107.9740799 16.90906065 -97.99455297 11.82373181 -87 8 C-86.23816406 7.72349609 -85.47632813 7.44699219 -84.69140625 7.16210938 C-71.02394794 2.20684605 -57.26780055 -1.25575196 -43 -4 C-41.17082031 -4.35384766 -41.17082031 -4.35384766 -39.3046875 -4.71484375 C-10.92533505 -9.79052428 -10.92533505 -9.79052428 0 0 Z " fill="#1DA134" transform="translate(299,338)"/>
<path d="M0 0 C7.02973023 4.08731872 12.23896594 9.58696899 14.8125 17.375 C16.52062335 25.35740649 15.33396378 32.93039828 11.125 39.9375 C5.37055907 47.57773363 -1.18949716 50.56428133 -10.515625 51.93359375 C-13.31553715 52.06263998 -15.60276049 51.73993488 -18.3125 51.0625 C-18.6425 51.7225 -18.9725 52.3825 -19.3125 53.0625 C-19.869375 52.44375 -19.869375 52.44375 -20.4375 51.8125 C-22.37266163 49.90568041 -22.37266163 49.90568041 -25.1875 48.1875 C-31.72175281 43.74420809 -36.78468621 38.0100698 -38.3125 30.0625 C-39.05143551 20.91106788 -37.99466128 14.13711898 -32.25 6.875 C-23.63590167 -2.24263643 -11.69182312 -5.15445965 0 0 Z " fill="#1EA135" transform="translate(550.3125,489.9375)"/>
<path d="M0 0 C5.92285533 5.58407268 9.14070016 10.67351668 9.95703125 18.8984375 C10.10965572 26.36316146 6.79801061 32.48806221 2 38 C-5.55905215 44.01580521 -12.52150073 44.60892177 -22 44 C-29.25709842 41.97752995 -35.12801772 37.10047065 -39 30.6875 C-40 28 -40 28 -40 26 C-40.66 25.67 -41.32 25.34 -42 25 C-40.52396271 13.29589251 -38.78921682 6.28050197 -29.1875 -1.1875 C-19.90290272 -6.46697689 -8.78425823 -6.36540451 0 0 Z " fill="#1DA134" transform="translate(555,407)"/>
<path d="M0 0 C5.43435328 6.34007883 7.60529444 11.02637222 7.45703125 19.26171875 C6.78271817 26.9590662 2.85563494 32.4959575 -2.75 37.625 C-8.36916993 42.11025672 -14.40192751 42.22884396 -21.40234375 42.01171875 C-29.93563354 41.02595949 -34.58177042 36.42687549 -39.9375 30 C-42.83985035 24.59562348 -44.44159195 19.10345137 -43.22265625 12.97265625 C-40.49943112 5.38736394 -35.83078061 -1.01926832 -28.625 -4.8125 C-18.32876372 -9.26173403 -8.43596893 -7.28560953 0 0 Z " fill="#1DA134" transform="translate(475.75,462.375)"/>
<path d="M0 0 C0.33 0 0.66 0 1 0 C2.88179651 24.70358392 3.34055092 49.26516358 2 74 C1.67 74 1.34 74 1 74 C0.9845388 73.07038704 0.9845388 73.07038704 0.96876526 72.12199402 C0.86073394 65.68205136 0.74613309 59.24224957 0.62768555 52.80249023 C0.58432591 50.39789777 0.5426516 47.99327431 0.50268555 45.58862305 C0.44500811 42.13580984 0.38130615 38.68315281 0.31640625 35.23046875 C0.29969376 34.15226364 0.28298126 33.07405853 0.26576233 31.96318054 C0.24581711 30.96236954 0.22587189 29.96155853 0.20532227 28.93041992 C0.18977798 28.04883713 0.1742337 27.16725433 0.15821838 26.25895691 C0.0825248 23.8322892 0.0825248 23.8322892 -1 21 C-1.01560763 19.37066846 -0.96765104 17.74026903 -0.87890625 16.11328125 C-0.83056641 15.17548828 -0.78222656 14.23769531 -0.73242188 13.27148438 C-0.67634766 12.29501953 -0.62027344 11.31855469 -0.5625 10.3125 C-0.51029297 9.32443359 -0.45808594 8.33636719 -0.40429688 7.31835938 C-0.27464694 4.87858324 -0.13968258 2.43921895 0 0 Z " fill="#3BA84B" transform="translate(696,635)"/>
<path d="M0 0 C10.66020902 2.92633189 10.66020902 2.92633189 14.28125 5.828125 C17.04941079 8.03947184 19.90096917 9.95153591 22.875 11.875 C27.57780564 14.97536817 31.83546138 18.2140558 36 22 C35.01 22.33 34.02 22.66 33 23 C30.67570323 21.47182063 28.54921552 19.90905835 26.375 18.1875 C19.98821615 13.28980092 13.39004573 9.10925174 6.37255859 5.17456055 C1.09462947 2.18925895 1.09462947 2.18925895 0 0 Z " fill="#249A31" transform="translate(426,173)"/>
<path d="M0 0 C0.33 0 0.66 0 1 0 C1 5.61 1 11.22 1 17 C1.66 17 2.32 17 3 17 C3 25.25 3 33.5 3 42 C2.67 42 2.34 42 2 42 C1.67 43.98 1.34 45.96 1 48 C0.67 48 0.34 48 0 48 C0 32.16 0 16.32 0 0 Z " fill="#3CA549" transform="translate(655,649)"/>
<path d="M0 0 C2.40699812 2.85273852 4.50570488 5.75248336 6.4375 8.9375 C8.06382053 11.60931229 9.76559284 14.01007055 11.8125 16.375 C14 19 14 19 14 21 C14.5775 21.226875 15.155 21.45375 15.75 21.6875 C18.5663661 23.33038023 20.08077114 25.39533227 22 28 C15.40896895 27.02355095 11.63186208 21.58888275 7.875 16.5625 C7.23111328 15.72235352 7.23111328 15.72235352 6.57421875 14.86523438 C-0.47726751 5.56812095 -0.47726751 5.56812095 0 0 Z " fill="#21952E" transform="translate(242,731)"/>
<path d="M0 0 C0.33 0 0.66 0 1 0 C2.94448001 10.92033865 3.65757349 21.01857561 2 32 C1.67 32 1.34 32 1 32 C0.6626979 27.95865433 0.33086166 23.91687763 0 19.875 C-0.14308594 18.16183594 -0.14308594 18.16183594 -0.2890625 16.4140625 C-0.37929688 15.30546875 -0.46953125 14.196875 -0.5625 13.0546875 C-0.64628906 12.03874512 -0.73007812 11.02280273 -0.81640625 9.97607422 C-1.00192972 6.96871903 -1.10081552 4.01186371 -1 1 C-0.67 0.67 -0.34 0.34 0 0 Z " fill="#2E9C3D" transform="translate(882,527)"/>
<path d="M0 0 C12.54 0.99 25.08 1.98 38 3 C38 3.33 38 3.66 38 4 C33.83741853 4.04969106 29.67499739 4.08585642 25.51220703 4.10986328 C24.09811391 4.11987856 22.68404127 4.13349474 21.27001953 4.15087891 C19.22944054 4.17532559 17.18913697 4.18652784 15.1484375 4.1953125 C13.92302246 4.20578613 12.69760742 4.21625977 11.43505859 4.22705078 C6.8764291 3.92573412 3.28497557 3.28497557 0 0 Z " fill="#158E22" transform="translate(290,771)"/>
<path d="M0 0 C2.475 0.495 2.475 0.495 5 1 C5 1.66 5 2.32 5 3 C5.5671875 3.25007813 6.134375 3.50015625 6.71875 3.7578125 C9.33462511 5.18221025 11.29548187 6.8743243 13.5 8.875 C14.2528125 9.55304688 15.005625 10.23109375 15.78125 10.9296875 C17.90252529 12.90904648 19.96255066 14.93476726 22 17 C17.39040381 16.49895694 14.99769523 14.71714595 11.5 11.75 C10.5821875 10.98171875 9.664375 10.2134375 8.71875 9.421875 C1.49222798 2.98445596 1.49222798 2.98445596 0 0 Z " fill="#269A33" transform="translate(171,502)"/>
<path d="M0 0 C1.2684375 -0.00580078 1.2684375 -0.00580078 2.5625 -0.01171875 C3.78839844 -0.00978516 3.78839844 -0.00978516 5.0390625 -0.0078125 C5.77592285 -0.00668457 6.5127832 -0.00555664 7.27197266 -0.00439453 C9.41699006 0.12758355 11.31183128 0.53827001 13.375 1.125 C13.375 1.785 13.375 2.445 13.375 3.125 C3.805 2.795 -5.765 2.465 -15.625 2.125 C-15.625 1.795 -15.625 1.465 -15.625 1.125 C-10.37986511 0.04863681 -5.32690841 -0.02458573 0 0 Z " fill="#1A9027" transform="translate(410.625,133.875)"/>
<path d="M0 0 C0.99 0 1.98 0 3 0 C2.67 12.21 2.34 24.42 2 37 C1.67 37 1.34 37 1 37 C0.67 24.79 0.34 12.58 0 0 Z " fill="#41AF53" transform="translate(354,266)"/>
<path d="M0 0 C0.33 0 0.66 0 1 0 C1.33686543 4.5414119 1.66887125 9.0831665 2 13.625 C2.14308594 15.55279297 2.14308594 15.55279297 2.2890625 17.51953125 C2.37929688 18.76347656 2.46953125 20.00742187 2.5625 21.2890625 C2.64628906 22.43068848 2.73007812 23.57231445 2.81640625 24.74853516 C2.99101731 27.84091568 3.03281022 30.90353537 3 34 C2.01 34 1.02 34 0 34 C0 30.37 0 26.74 0 23 C-0.33 23 -0.66 23 -1 23 C-0.67 15.41 -0.34 7.82 0 0 Z " fill="#3DAC4E" transform="translate(356,310)"/>
<path d="M0 0 C3.69128501 3.30054088 5.88632809 6.9110047 8.25 11.1875 C8.61351562 11.82880859 8.97703125 12.47011719 9.3515625 13.13085938 C12 17.84527726 12 17.84527726 12 19 C10.35 19 8.7 19 7 19 C7.33 18.34 7.66 17.68 8 17 C6.40512911 14.20237778 4.68086838 11.54997173 2.89257812 8.875 C0.7203808 5.51901259 0 4.12226547 0 0 Z " fill="#269932" transform="translate(425,665)"/>
<path d="M0 0 C1.8359375 0.2109375 1.8359375 0.2109375 4 1 C7.43056361 5.94683482 9.93396531 12.07758504 11 18 C10.03515625 20.1953125 10.03515625 20.1953125 9 22 C8.68546875 20.99839844 8.3709375 19.99679687 8.046875 18.96484375 C4.90189398 9.09209561 4.90189398 9.09209561 0 0 Z " fill="#2A9B38" transform="translate(741,240)"/>
<path d="M0 0 C-1.32 0.33 -2.64 0.66 -4 1 C-4 1.66 -4 2.32 -4 3 C-10.27 3 -16.54 3 -23 3 C-23 2.34 -23 1.68 -23 1 C-15.3164908 0.38794237 -7.70947565 -0.13292199 0 0 Z " fill="#309C3D" transform="translate(623,833)"/>
<path d="M0 0 C0.82242188 0.08378906 1.64484375 0.16757812 2.4921875 0.25390625 C9.49954102 0.8931452 16.03314993 1.02222405 23 0 C19.77208445 2.1519437 18.71599191 2.20086443 15 2 C15 2.66 15 3.32 15 4 C13.41676312 4.027193 11.83338938 4.04648306 10.25 4.0625 C8.92742188 4.07990234 8.92742188 4.07990234 7.578125 4.09765625 C5.16897863 4.00640071 3.2430862 3.88409929 1 3 C0.67 2.01 0.34 1.02 0 0 Z " fill="#20962C" transform="translate(751,641)"/>
<path d="M0 0 C6.27 0 12.54 0 19 0 C17 3 17 3 15.01171875 3.546875 C10.80566494 3.9144629 7.11953294 4.19599343 3 3 C2.67 3.66 2.34 4.32 2 5 C1.34 3.35 0.68 1.7 0 0 Z " fill="#229831" transform="translate(529,538)"/>
<path d="M0 0 C3 2 3 2 3.6171875 3.7265625 C3.74351562 4.47679687 3.86984375 5.22703125 4 6 C4.18820312 6.99773438 4.37640625 7.99546875 4.5703125 9.0234375 C4.75335937 10.12945313 4.93640625 11.23546875 5.125 12.375 C5.31320312 13.47585938 5.50140625 14.57671875 5.6953125 15.7109375 C6.00412003 19.04447524 5.69932015 21.73978917 5 25 C4.67 25 4.34 25 4 25 C3.32727653 21.58449704 2.66288201 18.16742548 2 14.75 C1.80921875 13.78191406 1.6184375 12.81382812 1.421875 11.81640625 C1.24140625 10.88183594 1.0609375 9.94726562 0.875 8.984375 C0.70742188 8.12553711 0.53984375 7.26669922 0.3671875 6.38183594 C0 4 0 4 0 0 Z " fill="#35A342" transform="translate(639,530)"/>
<path d="M0 0 C0.33 0 0.66 0 1 0 C0.45298368 7.44230094 -0.54198409 14.68160944 -2 22 C-2.33 22 -2.66 22 -3 22 C-4.32735186 15.0977703 -3.7915392 8.80994434 -2 2 C-1.34 1.34 -0.68 0.68 0 0 Z " fill="#31A241" transform="translate(694,731)"/>
<path d="M0 0 C0.33 0 0.66 0 1 0 C3.29612756 16.70842825 3.29612756 16.70842825 3 25 C2.67 25 2.34 25 2 25 C2 23.35 2 21.7 2 20 C1.34 20 0.68 20 0 20 C0 13.4 0 6.8 0 0 Z " fill="#158E21" transform="translate(319,345)"/>
<path d="M0 0 C4.36057105 0.87589933 7.26045667 3.23153998 10.6875 5.9375 C11.28111328 6.39318359 11.87472656 6.84886719 12.48632812 7.31835938 C16.86371528 10.72743056 16.86371528 10.72743056 18 13 C14.9188204 12.40298983 12.99748825 11.47777699 10.546875 9.53125 C9.61875 8.79841797 9.61875 8.79841797 8.671875 8.05078125 C8.03765625 7.53902344 7.4034375 7.02726563 6.75 6.5 C5.77546875 5.73236328 5.77546875 5.73236328 4.78125 4.94921875 C3.16412565 3.66163445 1.57896768 2.33410103 0 1 C0 0.67 0 0.34 0 0 Z " fill="#22982E" transform="translate(472,160)"/>
<path d="M0 0 C4.7793898 1.27082041 7.37137503 2.91166727 10.75 6.5 C11.50796875 7.2940625 12.2659375 8.088125 13.046875 8.90625 C14.01367188 9.94265625 14.01367188 9.94265625 15 11 C15.66 11.66 16.32 12.32 17 13 C16.01 13.495 16.01 13.495 15 14 C14.50371094 13.56429687 14.00742187 13.12859375 13.49609375 12.6796875 C12.81675781 12.08414063 12.13742187 11.48859375 11.4375 10.875 C10.71433594 10.24078125 9.99117187 9.6065625 9.24609375 8.953125 C7.18031672 7.15679714 5.09348924 5.38883961 3 3.625 C2.01 2.75875 1.02 1.8925 0 1 C0 0.67 0 0.34 0 0 Z " fill="#269934" transform="translate(514,785)"/>
<path d="M0 0 C0.33 0 0.66 0 1 0 C1.50509208 2.24886238 2.00389179 4.49913869 2.5 6.75 C2.7784375 8.00296875 3.056875 9.2559375 3.34375 10.546875 C4 14 4 14 4 18 C2.35 18 0.7 18 -1 18 C-0.835 17.2575 -0.67 16.515 -0.5 15.75 C0.20054587 10.49590599 0.07707499 5.29248251 0 0 Z " fill="#239631" transform="translate(234,703)"/>
<path d="M0 0 C4.18659858 3.82774727 7.37820862 7.94607874 10 13 C10 13.66 10 14.32 10 15 C7 14 7 14 5 12 C4.34 12 3.68 12 3 12 C2.814375 10.6078125 2.814375 10.6078125 2.625 9.1875 C2.18466918 5.86074765 2.18466918 5.86074765 0 3 C0 2.01 0 1.02 0 0 Z " fill="#21962E" transform="translate(446,698)"/>
<path d="M0 0 C0.99 0.33 1.98 0.66 3 1 C2.47731534 3.76276177 1.89130413 6.3260876 1 9 C0.01 9 -0.98 9 -2 9 C-2 12.3 -2 15.6 -2 19 C-2.66 18.67 -3.32 18.34 -4 18 C-3.7159949 15.93643105 -3.42246648 13.8741715 -3.125 11.8125 C-2.96257813 10.66394531 -2.80015625 9.51539063 -2.6328125 8.33203125 C-2.05939755 5.31275375 -1.25240957 2.79424152 0 0 Z " fill="#32A745" transform="translate(517,414)"/>
<path d="M0 0 C0.66 0.33 1.32 0.66 2 1 C2 1.66 2 2.32 2 3 C0.20703125 4.69140625 0.20703125 4.69140625 -2.1875 6.5625 C-2.96480469 7.18253906 -3.74210938 7.80257813 -4.54296875 8.44140625 C-7.09951127 10.063124 -9.02120511 10.61376194 -12 11 C-8.19588166 7.08060535 -4.18423892 3.50897269 0 0 Z " fill="#289C37" transform="translate(173,366)"/>
<path d="M0 0 C0.33 1.32 0.66 2.64 1 4 C0.01 4.33 -0.98 4.66 -2 5 C-2.2475 5.598125 -2.495 6.19625 -2.75 6.8125 C-4.68799499 10.20399123 -7.5674469 11.22015765 -11 13 C-9.46356148 9.31930113 -7.21849055 7.01224796 -4.375 4.25 C-3.55773437 3.45078125 -2.74046875 2.6515625 -1.8984375 1.828125 C-0.95871094 0.92320312 -0.95871094 0.92320312 0 0 Z " fill="#2DA23D" transform="translate(414,361)"/>
<path d="M0 0 C0.66 0.99 1.32 1.98 2 3 C1.34 3 0.68 3 0 3 C0 6.96 0 10.92 0 15 C0.66 15 1.32 15 2 15 C3.0625 16.8125 3.0625 16.8125 4 19 C3.67 19.99 3.34 20.98 3 22 C-0.81719893 17.19771747 -2.13868219 13.16602336 -2 7 C-1.54092353 4.51825989 -0.86289483 2.38565041 0 0 Z " fill="#3AA94B" transform="translate(599,356)"/>
<path d="M0 0 C-5.49687876 2.96656949 -11.74410231 4.4036063 -18 4 C-17.01 3.67 -16.02 3.34 -15 3 C-15 2.34 -15 1.68 -15 1 C-9.69276568 -0.42705634 -5.46108889 -1.4002792 0 0 Z " fill="#30A140" transform="translate(362,770)"/>
<path d="M0 0 C-2.74423624 2.74423624 -5.26790055 2.86361098 -9 3 C-13.34602477 2.78725753 -17.66979522 2.4232531 -22 2 C-22 1.67 -22 1.34 -22 1 C-18.89698871 0.63517625 -15.79249627 0.28499056 -12.6875 -0.0625 C-11.36588867 -0.2181543 -11.36588867 -0.2181543 -10.01757812 -0.37695312 C-9.17001953 -0.47041016 -8.32246094 -0.56386719 -7.44921875 -0.66015625 C-6.27879028 -0.79369507 -6.27879028 -0.79369507 -5.0847168 -0.92993164 C-3 -1 -3 -1 0 0 Z " fill="#38A745" transform="translate(346,730)"/>
<path d="M0 0 C0.66 0.33 1.32 0.66 2 1 C-2.06734974 5.59216906 -6.56385928 8.2167907 -12 11 C-12.66 10.34 -13.32 9.68 -14 9 C-13.15695312 8.51789062 -12.31390625 8.03578125 -11.4453125 7.5390625 C-10.34960938 6.90742187 -9.25390625 6.27578125 -8.125 5.625 C-7.03445313 4.99851562 -5.94390625 4.37203125 -4.8203125 3.7265625 C-1.98766657 2.14358549 -1.98766657 2.14358549 0 0 Z " fill="#2FA13E" transform="translate(821,578)"/>
<path d="M0 0 C4.3080351 5.24456447 4.10950972 9.4294171 4 16 C3.34 16 2.68 16 2 16 C0.61470179 10.54538831 -0.2396943 5.63281599 0 0 Z " fill="#21982F" transform="translate(365,394)"/>
<path d="M0 0 C3 3 3 3 3.2487793 5.36010742 C3.16237183 6.71906128 3.16237183 6.71906128 3.07421875 8.10546875 C3.01943359 9.08837891 2.96464844 10.07128906 2.90820312 11.08398438 C2.83537109 12.10814453 2.76253906 13.13230469 2.6875 14.1875 C2.62626953 15.22326172 2.56503906 16.25902344 2.50195312 17.32617188 C2.34864013 19.88531957 2.1807893 22.44267045 2 25 C1.67 25 1.34 25 1 25 C0.67 16.75 0.34 8.5 0 0 Z " fill="#49B15A" transform="translate(653,619)"/>
<path d="M0 0 C0.33 0 0.66 0 1 0 C1.33745354 2.39531756 1.6700829 4.79114268 2 7.1875 C2.14308594 8.19780273 2.14308594 8.19780273 2.2890625 9.22851562 C2.78324613 12.84664577 3.11346131 16.34796401 3 20 C0.20610205 18.05641882 -0.0456427 16.77939362 -0.75 13.375 C-1.17977263 8.84132013 -0.67509903 4.48681203 0 0 Z " fill="#37A749" transform="translate(359,348)"/>
<path d="M0 0 C3.2428329 3.72925783 5.5119901 8.30238735 7 13 C6.67 13.99 6.34 14.98 6 16 C3.2065758 14.6032879 3.03557041 13.00586915 1.9375 10.125 C1.59589844 9.24070313 1.25429688 8.35640625 0.90234375 7.4453125 C0.2367278 5.64152209 -0.3919947 3.8240159 -1 2 C-0.67 1.34 -0.34 0.68 0 0 Z " fill="#2B9F3A" transform="translate(779,227)"/>
<path d="M0 0 C1.68054361 3.10423557 2.73989499 6.16498934 3.6875 9.5625 C3.95949219 10.51253906 4.23148438 11.46257812 4.51171875 12.44140625 C5 15 5 15 4 18 C4 17.34 4 16.68 4 16 C3.34 16 2.68 16 2 16 C1.46748234 14.08654673 0.94940517 12.1690705 0.4375 10.25 C0.14746094 9.18265625 -0.14257812 8.1153125 -0.44140625 7.015625 C-0.97098494 4.15664073 -0.98370862 2.68402617 0 0 Z " fill="#2DA13C" transform="translate(661,450)"/>
<path d="M0 0 C0.33 0 0.66 0 1 0 C1.94450945 7.51248284 1.94450945 14.48751716 1 22 C0.67 22 0.34 22 0 22 C-0.19502282 19.08365878 -0.38129328 16.16720455 -0.5625 13.25 C-0.61857422 12.425 -0.67464844 11.6 -0.73242188 10.75 C-0.78076172 9.95078125 -0.82910156 9.1515625 -0.87890625 8.328125 C-0.9260376 7.5949707 -0.97316895 6.86181641 -1.02172852 6.10644531 C-0.99913793 3.91642774 -0.61487456 2.09512813 0 0 Z " fill="#33A140" transform="translate(318,334)"/>
<path d="M0 0 C3.50910665 1.16970222 3.78174698 1.85048928 5.5625 4.9375 C6.94197027 7.30537576 8.04971701 9.04971701 10 11 C9.67 11.99 9.34 12.98 9 14 C0 3.89320388 0 3.89320388 0 0 Z " fill="#1F952C" transform="translate(277,709)"/>
<path d="M0 0 C0.33 0 0.66 0 1 0 C1.88021369 6.71162938 2.11381955 13.23405981 2 20 C-0.75942175 17.30442091 -0.99899659 16.05259984 -1.07421875 12.109375 C-0.96182592 10.65487958 -0.83240522 9.20161688 -0.6875 7.75 C-0.62626953 7.00492188 -0.56503906 6.25984375 -0.50195312 5.4921875 C-0.3492857 3.66017845 -0.17660246 1.82985684 0 0 Z " fill="#3CAD4E" transform="translate(694,614)"/>
<path d="M0 0 C3.79979982 3.25697128 6.48005185 7.22568435 8 12 C7.60546875 14.25 7.60546875 14.25 7 16 C5.82845707 13.71070947 4.66261926 11.41881638 3.5 9.125 C3.16613281 8.47402344 2.83226562 7.82304688 2.48828125 7.15234375 C0 2.2265625 0 2.2265625 0 0 Z " fill="#1E972C" transform="translate(422,575)"/>
<path d="M0 0 C6.59229145 -0.7013076 10.49376557 1.50397814 16 5 C15.34 5.66 14.68 6.32 14 7 C12.989375 6.360625 11.97875 5.72125 10.9375 5.0625 C7.24780076 2.93151044 4.22139745 2.34460387 0 2 C0 1.34 0 0.68 0 0 Z " fill="#2B9E39" transform="translate(722,228)"/>
<path d="M0 0 C4.00453651 1.37298395 6.91685133 3.08350802 10 6 C11.3125 8.75 11.3125 8.75 12 11 C8.25846263 9.75282088 6.62482484 7.90112219 4 5 C3.67 4.01 3.34 3.02 3 2 C2.01 1.67 1.02 1.34 0 1 C0 0.67 0 0.34 0 0 Z " fill="#30A23D" transform="translate(412,711)"/>
<path d="M0 0 C0.66 0 1.32 0 2 0 C1.34580901 5.06998019 -0.8546409 9.41990777 -3 14 C-3.99 13.67 -4.98 13.34 -6 13 C-4.02 8.71 -2.04 4.42 0 0 Z " fill="#22992E" transform="translate(304,579)"/>
<path d="M0 0 C-1 3 -1 3 -2.578125 4.1796875 C-5.9625144 5.32601294 -9.22395529 5.21165138 -12.75 5.125 C-13.44738281 5.11597656 -14.14476562 5.10695313 -14.86328125 5.09765625 C-16.57566958 5.07419888 -18.28788004 5.03833104 -20 5 C-20 4.67 -20 4.34 -20 4 C-18.95199219 3.87882812 -17.90398438 3.75765625 -16.82421875 3.6328125 C-15.44526114 3.46396055 -14.06635761 3.29466659 -12.6875 3.125 C-11.99720703 3.04636719 -11.30691406 2.96773438 -10.59570312 2.88671875 C-6.7610238 2.40506821 -3.50754022 0 0 0 Z " fill="#179122" transform="translate(554,445)"/>
<path d="M0 0 C0.33 0 0.66 0 1 0 C2.40454548 6.11980533 3.23268915 11.71739294 3 18 C2.690625 17.360625 2.38125 16.72125 2.0625 16.0625 C1.1654837 14.06389179 1.1654837 14.06389179 0 13 C-0.07258946 10.81360547 -0.08373783 8.62499611 -0.0625 6.4375 C-0.05347656 5.23996094 -0.04445313 4.04242188 -0.03515625 2.80859375 C-0.02355469 1.88175781 -0.01195312 0.95492188 0 0 Z " fill="#148C1F" transform="translate(323,378)"/>
<path d="M0 0 C0.99 0.33 1.98 0.66 3 1 C2.34 1 1.68 1 1 1 C0.67 1.99 0.34 2.98 0 4 C-4.25 8.25 -4.25 8.25 -8 9 C-6.40758592 4.70048197 -3.64459275 2.60328053 0 0 Z " fill="#2BA03B" transform="translate(751,607)"/>
<path d="M0 0 C0.33 0 0.66 0 1 0 C3.29612756 11.52164009 3.29612756 11.52164009 3 17 C2.67 15.68 2.34 14.36 2 13 C1.34 13 0.68 13 0 13 C-0.83796731 8.34462607 -1.0161692 4.62921525 0 0 Z " fill="#34A645" transform="translate(685,553)"/>
<path d="M0 0 C3 2 3 2 3.75 5.3125 C3.9691856 8.54548765 3.8445224 10.90341785 3 14 C2.67 14 2.34 14 2 14 C1.67 12.35 1.34 10.7 1 9 C0.34 9 -0.32 9 -1 9 C-1.33 7.35 -1.66 5.7 -2 4 C-1.34 4 -0.68 4 0 4 C0 2.68 0 1.36 0 0 Z " fill="#37A847" transform="translate(330,423)"/>
<path d="M0 0 C4.20969919 1.50346399 5.91860139 4.14555814 8 8 C7.60546875 10.1953125 7.60546875 10.1953125 7 12 C5.82767315 10.3790787 4.6622923 8.75313167 3.5 7.125 C2.8503125 6.22007812 2.200625 5.31515625 1.53125 4.3828125 C0 2 0 2 0 0 Z " fill="#2B9D38" transform="translate(438,688)"/>
<path d="M0 0 C-5.52660506 3.22385295 -11.66491954 4.31675402 -18 4 C-18 3.67 -18 3.34 -18 3 C-15.36 2.67 -12.72 2.34 -10 2 C-10 1.34 -10 0.68 -10 0 C-6.30458414 -0.95024979 -3.69541586 -0.95024979 0 0 Z " fill="#38A84A" transform="translate(784,640)"/>
<path d="M0 0 C2.32947183 2.11770166 3.88750845 4.03335588 5 7 C4.67 7.99 4.34 8.98 4 10 C2.68 9.67 1.36 9.34 0 9 C-1.10844919 5.67465243 -0.84454356 3.37817425 0 0 Z " fill="#249A31" transform="translate(394,607)"/>
<path d="M0 0 C0.33 0 0.66 0 1 0 C0.88544319 1.91731918 0.75793742 3.8338675 0.625 5.75 C0.55539062 6.81734375 0.48578125 7.8846875 0.4140625 8.984375 C0.0271777 11.80206432 -0.55686166 13.5830366 -2 16 C-2.76173392 11.6835078 -3.16063604 8.25566547 -2 4 C-1.34 4 -0.68 4 0 4 C0 2.68 0 1.36 0 0 Z " fill="#32A443" transform="translate(788,306)"/>
<path d="M0 0 C0.66 0.33 1.32 0.66 2 1 C-0.31 4.63 -2.62 8.26 -5 12 C-6 8 -6 8 -4.78515625 5.859375 C-4.21667969 5.16328125 -3.64820313 4.4671875 -3.0625 3.75 C-2.49660156 3.04359375 -1.93070312 2.3371875 -1.34765625 1.609375 C-0.90292969 1.07828125 -0.45820313 0.5471875 0 0 Z " fill="#1E9429" transform="translate(298,506)"/>
<path d="M0 0 C4.36109605 0.50710419 7.45075299 1.36341651 11 4 C11.33 4.99 11.66 5.98 12 7 C7.69235185 5.43358249 3.93828536 3.31663844 0 1 C0 0.67 0 0.34 0 0 Z " fill="#2EA33D" transform="translate(727,431)"/>
<path d="M0 0 C0.33 0 0.66 0 1 0 C1 5.61 1 11.22 1 17 C0.67 17 0.34 17 0 17 C-0.144375 15.865625 -0.28875 14.73125 -0.4375 13.5625 C-0.61171478 10.19222799 -0.61171478 10.19222799 -2 9 C-2.1875 5.5625 -2.1875 5.5625 -2 2 C-1.34 1.34 -0.68 0.68 0 0 Z " fill="#36A446" transform="translate(179,422)"/>
<path d="M0 0 C1.10844919 3.32534757 0.84454356 5.62182575 0 9 C-0.33 9 -0.66 9 -1 9 C-1.66 10.98 -2.32 12.96 -3 15 C-4.15782198 11.61915982 -3.83835147 9.70336781 -2.625 6.375 C-2.34914063 5.59898437 -2.07328125 4.82296875 -1.7890625 4.0234375 C-1 2 -1 2 0 0 Z " fill="#2D9F3B" transform="translate(326,210)"/>
<path d="M0 0 C4.71354196 1.57118065 7.29212409 4.93818614 10 9 C6.11624195 8.42462844 3.82218799 6.66963729 1 4 C0.1875 1.75 0.1875 1.75 0 0 Z " fill="#289D37" transform="translate(541,751)"/>
<path d="M0 0 C0.33 0 0.66 0 1 0 C1.33 5.28 1.66 10.56 2 16 C1.01 16 0.02 16 -1 16 C-0.67 10.72 -0.34 5.44 0 0 Z " fill="#3AA649" transform="translate(654,703)"/>
<path d="M0 0 C-1.59915881 0.69906942 -3.20455045 1.38389468 -4.8125 2.0625 C-5.70582031 2.44535156 -6.59914063 2.82820312 -7.51953125 3.22265625 C-10 4 -10 4 -13 3 C-11.65543858 0.31087717 -10.42588619 0.2108218 -7.625 -0.75 C-6.83351563 -1.03359375 -6.04203125 -1.3171875 -5.2265625 -1.609375 C-3 -2 -3 -2 0 0 Z " fill="#2C9F3B" transform="translate(811,632)"/>
<path d="M0 0 C2.86453858 3.41016497 4.34703566 6.90694544 6 11 C5.34 11.66 4.68 12.32 4 13 C-0.59225513 4.738041 -0.59225513 4.738041 0 0 Z " fill="#259931" transform="translate(385,588)"/>
<path d="M0 0 C1.48454806 0.59082014 2.96254351 1.19812655 4.4375 1.8125 C5.26121094 2.14894531 6.08492187 2.48539062 6.93359375 2.83203125 C9 4 9 4 10 7 C5.76570244 5.68938409 1.92592596 4.05643741 -2 2 C-1.34 1.34 -0.68 0.68 0 0 Z " fill="#2DA03C" transform="translate(691,411)"/>
<path d="M0 0 C1.62723299 0.45034123 3.25173664 0.91055354 4.875 1.375 C5.77992188 1.63023437 6.68484375 1.88546875 7.6171875 2.1484375 C10 3 10 3 12 5 C8.52128379 6.15957207 7.65780355 5.77456651 4.3125 4.5625 C3.50425781 4.27503906 2.69601562 3.98757813 1.86328125 3.69140625 C1.24839844 3.46324219 0.63351562 3.23507812 0 3 C0 2.01 0 1.02 0 0 Z " fill="#2EA23D" transform="translate(680,365)"/>
<path d="M0 0 C-4.79482068 2.75702189 -8.58609132 3.53328373 -14 4 C-13.01 3.67 -12.02 3.34 -11 3 C-11 2.34 -11 1.68 -11 1 C-3.57142857 -1.42857143 -3.57142857 -1.42857143 0 0 Z " fill="#33A242" transform="translate(296,366)"/>
<path d="M0 0 C4.77576339 0.4682121 8.04476345 1.24331998 12 4 C11.67 4.99 11.34 5.98 11 7 C7.37 5.02 3.74 3.04 0 1 C0 0.67 0 0.34 0 0 Z " fill="#1E952C" transform="translate(746,198)"/>
<path d="M0 0 C0.33 0 0.66 0 1 0 C1.3690205 9.41002278 1.3690205 9.41002278 -1 14 C-1.33 14 -1.66 14 -2 14 C-1.85923685 12.0412957 -1.7122324 10.08303907 -1.5625 8.125 C-1.48128906 7.03445313 -1.40007812 5.94390625 -1.31640625 4.8203125 C-1 2 -1 2 0 0 Z " fill="#149122" transform="translate(277,652)"/>
<path d="M0 0 C1 2 1 2 0.22265625 4.3828125 C-0.16019531 5.28773438 -0.54304688 6.19265625 -0.9375 7.125 C-1.31777344 8.03507813 -1.69804687 8.94515625 -2.08984375 9.8828125 C-2.39019531 10.58148437 -2.69054687 11.28015625 -3 12 C-4.078125 10.23046875 -4.078125 10.23046875 -5 8 C-2.75510204 1.37755102 -2.75510204 1.37755102 0 0 Z " fill="#29A038" transform="translate(294,605)"/>
<path d="M0 0 C2.27474277 3.41211416 2.56629644 5.6568529 3.125 9.6875 C3.29257812 10.86699219 3.46015625 12.04648437 3.6328125 13.26171875 C3.75398437 14.16535156 3.87515625 15.06898438 4 16 C3.67 15.34 3.34 14.68 3 14 C2.34 14 1.68 14 1 14 C0.83081732 12.41693353 0.66476064 10.83353281 0.5 9.25 C0.4071875 8.36828125 0.314375 7.4865625 0.21875 6.578125 C0 4 0 4 0 0 Z " fill="#3DAA4E" transform="translate(670,485)"/>
<path d="M0 0 C0.33 0 0.66 0 1 0 C1.08160748 1.89510699 1.13946459 3.79124504 1.1875 5.6875 C1.22230469 6.74324219 1.25710938 7.79898437 1.29296875 8.88671875 C0.96409165 12.38158604 0.12293836 14.22938553 -2 17 C-2.66 17 -3.32 17 -4 17 C-3.34 15.02 -2.68 13.04 -2 11 C-1.34 11 -0.68 11 0 11 C0 7.37 0 3.74 0 0 Z " fill="#33A543" transform="translate(302,345)"/>
<path d="M0 0 C0.99 0.33 1.98 0.66 3 1 C2.34 1 1.68 1 1 1 C0.7525 1.598125 0.505 2.19625 0.25 2.8125 C-1.16370012 5.28647521 -2.65055383 6.43370255 -5 8 C-5.66 7.67 -6.32 7.34 -7 7 C-2.25 1.125 -2.25 1.125 0 0 Z " fill="#1B9629" transform="translate(480,301)"/>
<path d="M0 0 C4.95 0 9.9 0 15 0 C14.67 0.99 14.34 1.98 14 3 C4.58997722 2.03644647 4.58997722 2.03644647 0 1 C0 0.67 0 0.34 0 0 Z " fill="#36A647" transform="translate(599,789)"/>
<path d="M0 0 C6.91428571 0.94285714 6.91428571 0.94285714 10 3 C10.33 3.99 10.66 4.98 11 6 C6.95743617 4.77782954 3.50711041 3.37245704 0 1 C0 0.67 0 0.34 0 0 Z " fill="#329E3F" transform="translate(268,763)"/>
<path d="M0 0 C-3.00440021 2.00293347 -4.70993945 2.49271626 -8.1875 3.125 C-9.08855469 3.29257812 -9.98960937 3.46015625 -10.91796875 3.6328125 C-11.60503906 3.75398437 -12.29210937 3.87515625 -13 4 C-12.34 3.67 -11.68 3.34 -11 3 C-11 2.34 -11 1.68 -11 1 C-6.87831311 -0.62950412 -4.29299643 -1.26264601 0 0 Z " fill="#31A23F" transform="translate(798,636)"/>
<path d="M0 0 C2.24606427 1.77444972 2.95081002 2.58352485 3.29296875 5.48046875 C3.25816406 6.37378906 3.22335937 7.26710938 3.1875 8.1875 C3.16042969 9.08855469 3.13335938 9.98960937 3.10546875 10.91796875 C3.07066406 11.60503906 3.03585937 12.29210937 3 13 C2.34 12.67 1.68 12.34 1 12 C0.5859375 9.27734375 0.5859375 9.27734375 0.375 5.9375 C0.30023437 4.83277344 0.22546875 3.72804688 0.1484375 2.58984375 C0.09945312 1.73519531 0.05046875 0.88054688 0 0 Z " fill="#35A443" transform="translate(644,555)"/>
<path d="M0 0 C1.48285242 0.95262034 2.96118201 1.91228405 4.4375 2.875 C5.67306641 3.67550781 5.67306641 3.67550781 6.93359375 4.4921875 C9 6 9 6 10 8 C5.61999924 7.49942848 3.15830185 6.06806466 0 3 C0 2.01 0 1.02 0 0 Z " fill="#1E932A" transform="translate(183,511)"/>
<path d="M0 0 C3.41794232 4.55725642 3.2800783 5.36292453 2.6875 10.75 C2.56761719 11.92046875 2.44773437 13.0909375 2.32421875 14.296875 C2.21722656 15.18890625 2.11023438 16.0809375 2 17 C1.67 17 1.34 17 1 17 C0.67 11.39 0.34 5.78 0 0 Z " fill="#45AE55" transform="translate(651,600)"/>
<path d="M0 0 C0 3.39593478 -0.52165948 4.06619881 -2.5 6.6875 C-2.9640625 7.31011719 -3.428125 7.93273437 -3.90625 8.57421875 C-4.2671875 9.04472656 -4.628125 9.51523437 -5 10 C-5.61328125 8.16796875 -5.61328125 8.16796875 -6 6 C-4.21482174 3.35301155 -2.87978754 1.43989377 0 0 Z " fill="#20962B" transform="translate(320,475)"/>
<path d="M0 0 C1.74271938 2.297221 3.39911152 4.59866729 5 7 C4.625 9.1875 4.625 9.1875 4 11 C3.13341385 9.73760288 2.28207941 8.46472499 1.4375 7.1875 C0.72400391 6.12595703 0.72400391 6.12595703 -0.00390625 5.04296875 C-1 3 -1 3 0 0 Z " fill="#299B37" transform="translate(151,472)"/>
<path d="M0 0 C0.33 0 0.66 0 1 0 C1.36521739 5.47826087 1.36521739 5.47826087 -0.3125 7.875 C-2 9 -2 9 -5 9 C-3.50164236 5.88802644 -1.86022073 2.91164984 0 0 Z " fill="#2A9D3A" transform="translate(153,385)"/>
<path d="M0 0 C-2.6860286 1.79068573 -4.6626589 2.66055791 -7.6875 3.625 C-8.49574219 3.88539063 -9.30398437 4.14578125 -10.13671875 4.4140625 C-10.75160156 4.60742188 -11.36648437 4.80078125 -12 5 C-11 2 -11 2 -9.375 0.8125 C-6.19617272 -0.27499354 -3.33338467 -0.1282071 0 0 Z " fill="#2EA03C" transform="translate(224,384)"/>
<path d="M0 0 C0.66 0.33 1.32 0.66 2 1 C-0.54456151 3.96865509 -3.48994665 5.3619751 -7 7 C-7.66 6.34 -8.32 5.68 -9 5 C-7.54735962 4.1361871 -6.0876837 3.28419546 -4.625 2.4375 C-3.40683594 1.72400391 -3.40683594 1.72400391 -2.1640625 0.99609375 C-1.44992187 0.66738281 -0.73578125 0.33867187 0 0 Z " fill="#2FA13E" transform="translate(586,228)"/>
<path d="M0 0 C3.94139078 1.66751148 6.7892812 4.22710649 10 7 C9.01 7.33 8.02 7.66 7 8 C3.61988409 5.77407001 1.48781815 3.78717347 0 0 Z " fill="#1C9328" transform="translate(452,188)"/>
<path d="M0 0 C0.33 0.99 0.66 1.98 1 3 C-0.14453125 4.82421875 -0.14453125 4.82421875 -1.8125 6.6875 C-2.35519531 7.31011719 -2.89789062 7.93273437 -3.45703125 8.57421875 C-5 10 -5 10 -7 10 C-6.67 9.01 -6.34 8.02 -6 7 C-5.34 7 -4.68 7 -4 7 C-3.71125 6.401875 -3.4225 5.80375 -3.125 5.1875 C-2 3 -2 3 0 0 Z " fill="#1D9429" transform="translate(669,801)"/>
<path d="M0 0 C0.33 0.66 0.66 1.32 1 2 C0.34938905 3.67299959 -0.32033324 5.33859237 -1 7 C-1.37593066 8.9924325 -1.71979545 10.9918674 -2 13 C-2.33 13 -2.66 13 -3 13 C-3.08121924 11.39667209 -3.13929134 9.79215974 -3.1875 8.1875 C-3.22230469 7.29417969 -3.25710938 6.40085937 -3.29296875 5.48046875 C-2.95081002 2.58352485 -2.24606427 1.77444972 0 0 Z " fill="#138D1F" transform="translate(744,615)"/>
<path d="M0 0 C0.99 0.33 1.98 0.66 3 1 C3.74926071 4.66305234 4.2380014 7.42355152 3 11 C2.34 10.67 1.68 10.34 1 10 C0.5859375 7.71484375 0.5859375 7.71484375 0.375 4.9375 C0.30023437 4.01839844 0.22546875 3.09929687 0.1484375 2.15234375 C0.09945312 1.44207031 0.05046875 0.73179687 0 0 Z " fill="#33A240" transform="translate(623,462)"/>
<path d="M0 0 C5.78461538 4.30769231 5.78461538 4.30769231 6.875 7.8125 C6.936875 8.8953125 6.936875 8.8953125 7 10 C6.67 9.34 6.34 8.68 6 8 C5.34 8 4.68 8 4 8 C0 3.64705882 0 3.64705882 0 0 Z " fill="#2EA43D" transform="translate(646,411)"/>
<path d="M0 0 C0.66 0.33 1.32 0.66 2 1 C-0.62652025 4.59930552 -2.93963643 7.07666989 -7 9 C-7.66 8.67 -8.32 8.34 -9 8 C-6.03 5.36 -3.06 2.72 0 0 Z " fill="#33A441" transform="translate(473,306)"/>
<path d="M0 0 C0 0.33 0 0.66 0 1 C-1.41377782 1.36552803 -2.83120576 1.71695495 -4.25 2.0625 C-5.03890625 2.25972656 -5.8278125 2.45695313 -6.640625 2.66015625 C-9.10394822 3.01497267 -10.65604132 2.76877544 -13 2 C-9.02291084 -1.97708916 -5.28744325 -0.91513441 0 0 Z " fill="#39A848" transform="translate(696,229)"/>
<path d="M0 0 C-3.1254959 2.64465038 -6.08788267 3.84414715 -10 5 C-10 4.01 -10 3.02 -10 2 C-6.49223216 0.39644899 -3.85645121 -0.22036864 0 0 Z " fill="#32A341" transform="translate(409,753)"/>
<path d="M0 0 C1.13643966 3.40931897 0.86747764 4.00335456 -0.4375 7.1875 C-0.86869141 8.26064453 -0.86869141 8.26064453 -1.30859375 9.35546875 C-1.53675781 9.89816406 -1.76492187 10.44085937 -2 11 C-2.33 11 -2.66 11 -3 11 C-2.88590407 9.54077307 -2.75834456 8.08259402 -2.625 6.625 C-2.55539063 5.81289063 -2.48578125 5.00078125 -2.4140625 4.1640625 C-2 2 -2 2 0 0 Z " fill="#1A9126" transform="translate(248,608)"/>
<path d="M0 0 C0.33 0 0.66 0 1 0 C1.33 4.95 1.66 9.9 2 15 C-1 12 -1 12 -1.07421875 9.08203125 C-0.94660156 8.00308594 -0.81898438 6.92414062 -0.6875 5.8125 C-0.56761719 4.72582031 -0.44773437 3.63914062 -0.32421875 2.51953125 C-0.21722656 1.68808594 -0.11023438 0.85664062 0 0 Z " fill="#43B054" transform="translate(692,597)"/>
<path d="M0 0 C0.66 0 1.32 0 2 0 C3.28317892 3.84953676 3.06643637 6.94738135 3 11 C0.43383368 7.15075052 0.44902324 4.5650696 0 0 Z " fill="#1F972D" transform="translate(658,443)"/>
<path d="M0 0 C3.06827858 4.60241787 3.23093594 9.15251247 2.5625 14.5 C2.376875 15.325 2.19125 16.15 2 17 C1.67 17 1.34 17 1 17 C0.83141902 14.9168207 0.66520745 12.83344956 0.5 10.75 C0.4071875 9.58984375 0.314375 8.4296875 0.21875 7.234375 C0.05595356 4.82731342 0 2.41256049 0 0 Z " fill="#39A94D" transform="translate(562,417)"/>
<path d="M0 0 C0.33 0.99 0.66 1.98 1 3 C0.00390625 4.82421875 0.00390625 4.82421875 -1.4375 6.6875 C-1.91058594 7.31011719 -2.38367188 7.93273437 -2.87109375 8.57421875 C-3.24363281 9.04472656 -3.61617187 9.51523437 -4 10 C-4.65234375 8.203125 -4.65234375 8.203125 -5 6 C-3.63510623 3.66629928 -1.8580962 1.99405446 0 0 Z " fill="#249931" transform="translate(188,403)"/>
<path d="M0 0 C1.32 0.33 2.64 0.66 4 1 C0.535 3.97 0.535 3.97 -3 7 C-3.66 6.67 -4.32 6.34 -5 6 C-3.35 4.02 -1.7 2.04 0 0 Z " fill="#1D972C" transform="translate(489,293)"/>
<path d="M0 0 C2 1 2 1 3 3 C-0.3125 4.125 -0.3125 4.125 -4 5 C-4.99 4.34 -5.98 3.68 -7 3 C-4.69631264 1.93347808 -2.35981813 0.93578995 0 0 Z " fill="#2FA33E" transform="translate(622,785)"/>
<path d="M0 0 C2 0 2 0 4.625 2.3125 C7 5 7 5 7 8 C3.70851757 6.86500606 3.0040131 6.00716624 1.25 2.875 C0.8375 1.92625 0.425 0.9775 0 0 Z " fill="#199228" transform="translate(509,778)"/>
<path d="M0 0 C0.66 0.33 1.32 0.66 2 1 C1.67 3.31 1.34 5.62 1 8 C0.34 8 -0.32 8 -1 8 C-1.33 8.99 -1.66 9.98 -2 11 C-1 3.57142857 -1 3.57142857 0 0 Z " fill="#34A140" transform="translate(648,742)"/>
<path d="M0 0 C3 1 3 1 4.75 3.3125 C6.14972335 6.32190521 5.95287489 6.98041673 5 10 C4.16121545 8.71186658 3.32913217 7.41936744 2.5 6.125 C2.0359375 5.40570312 1.571875 4.68640625 1.09375 3.9453125 C0 2 0 2 0 0 Z " fill="#1D952A" transform="translate(458,643)"/>
<path d="M0 0 C3.53586014 3.17320782 5.58578031 5.16743695 6 10 C3.38275905 7.63202009 1.67138271 5.10399646 0 2 C0 1.34 0 0.68 0 0 Z " fill="#1B9529" transform="translate(451,631)"/>
<path d="M0 0 C2.02350324 3.03525486 2.32124018 4.19426202 2.625 7.6875 C2.69976563 8.49574219 2.77453125 9.30398438 2.8515625 10.13671875 C2.90054688 10.75160156 2.94953125 11.36648438 3 12 C2.67 11.01 2.34 10.02 2 9 C1.34 9 0.68 9 0 9 C0 6.03 0 3.06 0 0 Z " fill="#168E22" transform="translate(633,498)"/>
<path d="M0 0 C1.96446905 1.6344795 2.92317791 2.46429394 3.29296875 5.04296875 C3.1953125 7.02864583 3.09765625 9.01432292 3 11 C0.60236815 8.60236815 0.65719414 7.66726502 0.375 4.375 C0.30023437 3.55773437 0.22546875 2.74046875 0.1484375 1.8984375 C0.09945312 1.27195312 0.05046875 0.64546875 0 0 Z " fill="#179224" transform="translate(666,474)"/>
<path d="M0 0 C1.78409802 3.06246747 2.22880021 5.22079273 2.125 8.75 C2.10695313 9.54921875 2.08890625 10.3484375 2.0703125 11.171875 C2.04710937 11.77515625 2.02390625 12.3784375 2 13 C0.4375 11.5625 0.4375 11.5625 -1 9 C-0.96846324 5.94619073 -0.53266629 3.00346778 0 0 Z " fill="#3CAF51" transform="translate(481,471)"/>
<path d="M0 0 C0.99 0.33 1.98 0.66 3 1 C1.02 3.31 -0.96 5.62 -3 8 C-3.33 7.01 -3.66 6.02 -4 5 C-2.0625 2.3125 -2.0625 2.3125 0 0 Z " fill="#2BA23A" transform="translate(387,454)"/>
<path d="M0 0 C0.99 0.33 1.98 0.66 3 1 C4.23076923 6.41538462 4.23076923 6.41538462 3.0625 9.375 C2.711875 9.91125 2.36125 10.4475 2 11 C0.80712589 7.12315913 0 4.08378077 0 0 Z " fill="#34A544" transform="translate(619,446)"/>
<path d="M0 0 C3 2 3 2 3.8125 4.875 C4.00455315 8.07588583 3.72217143 9.36609075 2 12 C0.86235649 7.73383684 0 4.43513689 0 0 Z " fill="#39A745" transform="translate(333,437)"/>
<path d="M0 0 C-3.53411321 2.12046792 -6.94393835 2.53199289 -11 3 C-11 2.01 -11 1.02 -11 0 C-6.98195309 -0.84098656 -3.98196457 -1.05404945 0 0 Z " fill="#35A544" transform="translate(251,376)"/>
<path d="M0 0 C1.32 0.33 2.64 0.66 4 1 C1.69 2.65 -0.62 4.3 -3 6 C-3.66 5.67 -4.32 5.34 -5 5 C-2.75 2.4375 -2.75 2.4375 0 0 Z " fill="#20942C" transform="translate(179,362)"/>
<path d="M0 0 C1.46726798 3.81489674 0.43336419 6.29011622 -1 10 C-1.66 9.67 -2.32 9.34 -3 9 C-2.25 2.25 -2.25 2.25 0 0 Z " fill="#33A342" transform="translate(783,331)"/>
<path d="M0 0 C1.43655854 -0.08131463 2.8744483 -0.13933559 4.3125 -0.1875 C5.51326172 -0.23970703 5.51326172 -0.23970703 6.73828125 -0.29296875 C9.47851584 0.06198392 10.29171079 0.89366282 12 3 C10.02 3 8.04 3 6 3 C6 2.34 6 1.68 6 1 C4.02 1 2.04 1 0 1 C0 0.67 0 0.34 0 0 Z " fill="#27A33A" transform="translate(261,333)"/>
<path d="M0 0 C0.66 0 1.32 0 2 0 C1.01 3.3 0.02 6.6 -1 10 C-1.66 8.68 -2.32 7.36 -3 6 C-1.625 2.75 -1.625 2.75 0 0 Z " fill="#2CA13C" transform="translate(370,198)"/>
<path d="M0 0 C-4.1196377 1.29243536 -7.66831683 2.26252625 -12 2 C-10.68 1.67 -9.36 1.34 -8 1 C-8 0.34 -8 -0.32 -8 -1 C-4.59745511 -2.2151946 -3.06748874 -1.86240388 0 0 Z " fill="#40A84E" transform="translate(631,833)"/>
<path d="M0 0 C3 1 3 1 4.1875 2.75 C5.10819096 5.29960574 5.14948718 7.30923081 5 10 C2.35534962 6.8745041 1.15585285 3.91211733 0 0 Z " fill="#31A03C" transform="translate(405,631)"/>
<path d="M0 0 C2.97 0 5.94 0 9 0 C6.09907498 1.93395001 5.10325263 2.30131941 1.8125 2.625 C0.554375 2.74875 -0.70375 2.8725 -2 3 C-1.34 2.67 -0.68 2.34 0 2 C0 1.34 0 0.68 0 0 Z " fill="#179023" transform="translate(754,606)"/>
<path d="M0 0 C2.32472205 2.85306797 3.7508258 5.54074837 5 9 C4.01 9 3.02 9 2 9 C0.14223235 5.86501708 -0.20140476 3.62528568 0 0 Z " fill="#22962E" transform="translate(380,577)"/>
<path d="M0 0 C2.47524576 2.90572328 3.69670231 5.15822926 4 9 C3.34 9.66 2.68 10.32 2 11 C0.57741188 7.17679443 -0.24042276 4.08718695 0 0 Z " fill="#259832" transform="translate(353,507)"/>
<path d="M0 0 C-1 2 -1 2 -3.06640625 2.8515625 C-4.30197266 3.23441406 -4.30197266 3.23441406 -5.5625 3.625 C-6.80193359 4.01558594 -6.80193359 4.01558594 -8.06640625 4.4140625 C-8.70449219 4.60742188 -9.34257813 4.80078125 -10 5 C-10 4.34 -10 3.68 -10 3 C-6.58168085 0.4606772 -4.24223102 -0.3636198 0 0 Z " fill="#31A33F" transform="translate(629,252)"/>
<path d="M0 0 C0.99 0.33 1.98 0.66 3 1 C2.34 1 1.68 1 1 1 C0.67 1.99 0.34 2.98 0 4 C-2.31 4.33 -4.62 4.66 -7 5 C-4.702779 3.25728062 -2.40133271 1.60088848 0 0 Z " fill="#31A340" transform="translate(595,223)"/>
<path d="M0 0 C2.5 2.3125 2.5 2.3125 5 5 C5 5.99 5 6.98 5 8 C2.5 6.25 2.5 6.25 0 4 C0 2.68 0 1.36 0 0 Z " fill="#2D9E3B" transform="translate(499,180)"/>
<path d="M0 0 C1.60080151 4.00200378 0.29279692 7.04556236 -1 11 C-2.55136786 8.53606281 -3.03039129 7.31910854 -2.75 4.375 C-2 2 -2 2 0 0 Z " fill="#34A343" transform="translate(690,753)"/>
<path d="M0 0 C1.99097846 2.98646769 2.94124926 5.59687262 4 9 C3.01 8.67 2.02 8.34 1 8 C-0.1875 4.4375 -0.1875 4.4375 -1 1 C-0.67 0.67 -0.34 0.34 0 0 Z " fill="#299F38" transform="translate(411,547)"/>
<path d="M0 0 C5.75 1.625 5.75 1.625 8 5 C4.62537285 4.45276317 2.91765 3.9451 0 2 C0 1.34 0 0.68 0 0 Z " fill="#2AA23B" transform="translate(548,490)"/>
<path d="M0 0 C-0.66 0 -1.32 0 -2 0 C-2 0.66 -2 1.32 -2 2 C-4.31 2.66 -6.62 3.32 -9 4 C-8 1 -8 1 -5.625 -0.25 C-3 -1 -3 -1 0 0 Z " fill="#2AA037" transform="translate(454,457)"/>
<path d="M0 0 C1.98362069 2.91708924 1.9876191 4.12380904 1.625 7.75 C1.41875 8.8225 1.2125 9.895 1 11 C0.67 11 0.34 11 0 11 C-0.19406478 9.35492782 -0.38007935 7.70890406 -0.5625 6.0625 C-0.66691406 5.14597656 -0.77132813 4.22945313 -0.87890625 3.28515625 C-0.91886719 2.53105469 -0.95882813 1.77695312 -1 1 C-0.67 0.67 -0.34 0.34 0 0 Z " fill="#36A442" transform="translate(327,402)"/>
<path d="M0 0 C0.33 0.66 0.66 1.32 1 2 C1.66 2 2.32 2 3 2 C4.0625 3.8125 4.0625 3.8125 5 6 C4.67 6.99 4.34 7.98 4 9 C0 3.375 0 3.375 0 0 Z " fill="#33A242" transform="translate(598,369)"/>
<path d="M0 0 C2.64 0.33 5.28 0.66 8 1 C8 1.33 8 1.66 8 2 C4.37 2.33 0.74 2.66 -3 3 C-2.01 2.67 -1.02 2.34 0 2 C0 1.34 0 0.68 0 0 Z " fill="#34A645" transform="translate(263,371)"/>
<path d="M0 0 C0.99 0.33 1.98 0.66 3 1 C0.64031256 3.09749995 -0.54616994 3.96905704 -3.75 4.1875 C-4.86375 4.0946875 -4.86375 4.0946875 -6 4 C-4.03617993 2.49440461 -2.21736634 1.10868317 0 0 Z " fill="#1C9228" transform="translate(397,756)"/>
<path d="M0 0 C3 1 3 1 4.3125 3.375 C4.6528125 4.674375 4.6528125 4.674375 5 6 C4.01 7.485 4.01 7.485 3 9 C2.01 6.03 1.02 3.06 0 0 Z " fill="#35A343" transform="translate(238,725)"/>
<path d="M0 0 C4.875 4.75 4.875 4.75 6 7 C4.125 6.6875 4.125 6.6875 2 6 C0 3 0 3 0 0 Z " fill="#279C35" transform="translate(502,706)"/>
<path d="M0 0 C0.66 0.33 1.32 0.66 2 1 C-0.3125 3.5 -0.3125 3.5 -3 6 C-3.99 6 -4.98 6 -6 6 C-4 4 -2 2 0 0 Z " fill="#289C38" transform="translate(821,578)"/>
<path d="M0 0 C0.33 0 0.66 0 1 0 C1.25 2.25 1.25 2.25 1 5 C-1 7.3125 -1 7.3125 -3 9 C-3 5.30581799 -1.71820705 3.22163822 0 0 Z " fill="#309F3E" transform="translate(840,556)"/>
<path d="M0 0 C1.98 1.65 3.96 3.3 6 5 C5.67 5.99 5.34 6.98 5 8 C3.5 6.625 3.5 6.625 2 5 C2 4.34 2 3.68 2 3 C1.34 3 0.68 3 0 3 C0 2.01 0 1.02 0 0 Z " fill="#289934" transform="translate(814,491)"/>
<path d="M0 0 C3.37503669 1.1858237 5.64722731 2.27573689 8 5 C4.86248779 5 3.60242414 4.64820195 1 3 C0.67 2.01 0.34 1.02 0 0 Z " fill="#269B32" transform="translate(753,445)"/>
<path d="M0 0 C3.00617269 3.00617269 2.59585316 5.82381598 3 10 C2.67 9.01 2.34 8.02 2 7 C1.34 7 0.68 7 0 7 C0 4.69 0 2.38 0 0 Z " fill="#199326" transform="translate(618,439)"/>
<path d="M0 0 C0.66 0.66 1.32 1.32 2 2 C0.35 3.98 -1.3 5.96 -3 8 C-3.33 7.01 -3.66 6.02 -4 5 C-2.0625 2.3125 -2.0625 2.3125 0 0 Z " fill="#299E35" transform="translate(406,431)"/>
<path d="M0 0 C4.455 0.99 4.455 0.99 9 2 C6 4 6 4 2.8125 3.625 C1.884375 3.41875 0.95625 3.2125 0 3 C0 2.01 0 1.02 0 0 Z " fill="#2FA43E" transform="translate(639,351)"/>
<path d="M0 0 C0.33 0 0.66 0 1 0 C1 1.98 1 3.96 1 6 C0.34 6 -0.32 6 -1 6 C-1.33 7.32 -1.66 8.64 -2 10 C-1.85950482 8.52031676 -1.71245174 7.04125484 -1.5625 5.5625 C-1.48128906 4.73878906 -1.40007813 3.91507812 -1.31640625 3.06640625 C-1 1 -1 1 0 0 Z " fill="#309F3F" transform="translate(753,288)"/>
<path d="M0 0 C0.66 0.33 1.32 0.66 2 1 C0.25 3.0625 0.25 3.0625 -2 5 C-4.25 4.75 -4.25 4.75 -6 4 C-4.02 2.68 -2.04 1.36 0 0 Z " fill="#30A13F" transform="translate(563,241)"/>
<path d="M0 0 C0.66 0.33 1.32 0.66 2 1 C0.35 2.65 -1.3 4.3 -3 6 C-3.99 5.67 -4.98 5.34 -6 5 C-4.02 3.35 -2.04 1.7 0 0 Z " fill="#189225" transform="translate(390,173)"/>
<path d="M0 0 C3.37462715 0.54723683 5.08235 1.0549 8 3 C7.67 3.66 7.34 4.32 7 5 C1.125 2.25 1.125 2.25 0 0 Z " fill="#2AA139" transform="translate(488,173)"/>
<path d="M0 0 C0.66 0.33 1.32 0.66 2 1 C0.75 3.4375 0.75 3.4375 -1 6 C-2.32 6.33 -3.64 6.66 -5 7 C-3.35 4.69 -1.7 2.38 0 0 Z " fill="#289B36" transform="translate(354,156)"/>
<path d="M0 0 C0.99 1.485 0.99 1.485 2 3 C1.67 3.99 1.34 4.98 1 6 C0.67 4.02 0.34 2.04 0 0 Z " fill="#40A84F" transform="translate(232,712)"/>
<path d="M0 0 C0.99 0.495 0.99 0.495 2 1 C2 1.99 2 2.98 2 4 C1.34 4 0.68 4 0 4 C0 2.68 0 1.36 0 0 Z " fill="#36AD49" transform="translate(800,484)"/>
<path d="M0 0 C1.65 0 3.3 0 5 0 C5 0.33 5 0.66 5 1 C3.35 1 1.7 1 0 1 C0 0.67 0 0.34 0 0 Z " fill="#37AC4A" transform="translate(409,172)"/>
<path d="M0 0 C0.99 0.495 0.99 0.495 2 1 C1.34 1.66 0.68 2.32 0 3 C0 2.01 0 1.02 0 0 Z " fill="#37A748" transform="translate(523,796)"/>
<path d="M0 0 C0.99 0.33 1.98 0.66 3 1 C2.01 1.33 1.02 1.66 0 2 C0 1.34 0 0.68 0 0 Z " fill="#35A945" transform="translate(768,600)"/>
<path d="M0 0 C0.99 1.485 0.99 1.485 2 3 C1.34 3 0.68 3 0 3 C0 2.01 0 1.02 0 0 Z " fill="#35AB48" transform="translate(371,564)"/>
<path d="M0 0 C0.99 0.33 1.98 0.66 3 1 C2.01 1 1.02 1 0 1 C0 0.67 0 0.34 0 0 Z " fill="#3BAB4C" transform="translate(208,533)"/>
<path d="M0 0 C1 4 1 4 1 4 Z " fill="#39AE4A" transform="translate(313,308)"/>
<path d="M0 0 C1 4 1 4 1 4 Z " fill="#38AD4A" transform="translate(313,298)"/>
<path d="M0 0 C3 1 3 1 3 1 Z " fill="#3CA94A" transform="translate(595,836)"/>
<path d="M0 0 C3 1 3 1 3 1 Z " fill="#39A748" transform="translate(290,774)"/>
<path d="M0 0 C0.33 0.66 0.66 1.32 1 2 C0.34 1.67 -0.32 1.34 -1 1 C-0.67 0.67 -0.34 0.34 0 0 Z " fill="#3EA850" transform="translate(268,765)"/>
<path d="M0 0 C0.66 0 1.32 0 2 0 C1.67 0.66 1.34 1.32 1 2 C0.67 1.34 0.34 0.68 0 0 Z " fill="#34AA47" transform="translate(458,722)"/>
<path d="M0 0 C0.66 0.66 1.32 1.32 2 2 C1.34 2 0.68 2 0 2 C0 1.34 0 0.68 0 0 Z " fill="#35AC49" transform="translate(419,661)"/>
<path d="M0 0 C0.33 0.66 0.66 1.32 1 2 C0.34 1.67 -0.32 1.34 -1 1 C-0.67 0.67 -0.34 0.34 0 0 Z " fill="#37AB48" transform="translate(411,646)"/>
<path d="M0 0 C0.66 0 1.32 0 2 0 C1.67 0.66 1.34 1.32 1 2 C0.67 1.34 0.34 0.68 0 0 Z " fill="#35AB47" transform="translate(754,645)"/>
<path d="M0 0 C0.33 0.66 0.66 1.32 1 2 C0.34 1.67 -0.32 1.34 -1 1 C-0.67 0.67 -0.34 0.34 0 0 Z " fill="#39AC49" transform="translate(409,644)"/>
<path d="M0 0 C0.66 0 1.32 0 2 0 C1.67 0.66 1.34 1.32 1 2 C0.67 1.34 0.34 0.68 0 0 Z " fill="#38AD4B" transform="translate(635,526)"/>
<path d="M0 0 C0.33 0.66 0.66 1.32 1 2 C0.34 1.67 -0.32 1.34 -1 1 C-0.67 0.67 -0.34 0.34 0 0 Z " fill="#37AE4C" transform="translate(441,500)"/>
<path d="M0 0 C0.66 0.66 1.32 1.32 2 2 C1.34 2 0.68 2 0 2 C0 1.34 0 0.68 0 0 Z " fill="#35AB4A" transform="translate(436,494)"/>
<path d="M0 0 C0.99 0.495 0.99 0.495 2 1 C1.01 1.495 1.01 1.495 0 2 C0 1.34 0 0.68 0 0 Z " fill="#36AD4C" transform="translate(526,488)"/>
<path d="M0 0 C3 1 3 1 3 1 Z " fill="#36AB4C" transform="translate(549,488)"/>
<path d="M0 0 C0.66 0 1.32 0 2 0 C1.67 0.66 1.34 1.32 1 2 C0.67 1.34 0.34 0.68 0 0 Z " fill="#3CAA4D" transform="translate(153,483)"/>
<path d="M0 0 C0.66 0.66 1.32 1.32 2 2 C1.34 2 0.68 2 0 2 C0 1.34 0 0.68 0 0 Z " fill="#38AA48" transform="translate(625,480)"/>
<path d="" fill="#3FA951" transform="translate(0,0)"/>
<path d="M0 0 C0.66 0 1.32 0 2 0 C1.67 0.66 1.34 1.32 1 2 C0.67 1.34 0.34 0.68 0 0 Z " fill="#38AE4D" transform="translate(549,450)"/>
<path d="" fill="#37AE49" transform="translate(0,0)"/>
<path d="M0 0 C0.66 0.66 1.32 1.32 2 2 C1.34 2 0.68 2 0 2 C0 1.34 0 0.68 0 0 Z " fill="#35AC49" transform="translate(703,420)"/>
<path d="M0 0 C0.66 0 1.32 0 2 0 C1.67 0.66 1.34 1.32 1 2 C0.67 1.34 0.34 0.68 0 0 Z " fill="#37AE4B" transform="translate(267,374)"/>
<path d="" fill="#39A84D" transform="translate(0,0)"/>
<path d="" fill="#39AF4B" transform="translate(0,0)"/>
<path d="M0 0 C0.66 0.66 1.32 1.32 2 2 C1.34 2 0.68 2 0 2 C0 1.34 0 0.68 0 0 Z " fill="#34AC48" transform="translate(419,173)"/>
<path d="M0 0 C2 1 2 1 2 1 Z " fill="#3EAA4F" transform="translate(616,837)"/>
<path d="M0 0 C2 1 2 1 2 1 Z " fill="#3AA94B" transform="translate(283,772)"/>
<path d="M0 0 C2 1 2 1 2 1 Z " fill="#3CA650" transform="translate(269,767)"/>
<path d="M0 0 C2 1 2 1 2 1 Z " fill="#39AB48" transform="translate(381,766)"/>
<path d="" fill="#3EA84D" transform="translate(0,0)"/>
<path d="M0 0 C2 1 2 1 2 1 Z " fill="#40A851" transform="translate(235,726)"/>
<path d="" fill="#34A743" transform="translate(0,0)"/>
<path d="M0 0 C2 1 2 1 2 1 Z " fill="#39AB4C" transform="translate(771,646)"/>
<path d="M0 0 C2 1 2 1 2 1 Z " fill="#37A947" transform="translate(757,646)"/>
<path d="" fill="#39AA49" transform="translate(0,0)"/>
<path d="" fill="#3CAB4F" transform="translate(0,0)"/>
<path d="M0 0 C2 1 2 1 2 1 Z " fill="#37AB4A" transform="translate(400,631)"/>
<path d="" fill="#3BAD4D" transform="translate(0,0)"/>
<path d="" fill="#3AAE4B" transform="translate(0,0)"/>
<path d="" fill="#38AF48" transform="translate(0,0)"/>
<path d="" fill="#3AAE4C" transform="translate(0,0)"/>
<path d="" fill="#39AC49" transform="translate(0,0)"/>
<path d="M0 0 C2 1 2 1 2 1 Z " fill="#37AE48" transform="translate(376,581)"/>
<path d="" fill="#35AB45" transform="translate(0,0)"/>
<path d="" fill="#34AA47" transform="translate(0,0)"/>
<path d="" fill="#39B049" transform="translate(0,0)"/>
<path d="" fill="#3AAF4B" transform="translate(0,0)"/>
<path d="M0 0 C2 1 2 1 2 1 Z " fill="#37AC4D" transform="translate(836,526)"/>
<path d="M0 0 C2 1 2 1 2 1 Z " fill="#36AC49" transform="translate(356,526)"/>
<path d="" fill="#36AA46" transform="translate(0,0)"/>
<path d="" fill="#39AA49" transform="translate(0,0)"/>
<path d="M0 0 C2 1 2 1 2 1 Z " fill="#3EA74F" transform="translate(160,495)"/>
<path d="" fill="#37AC49" transform="translate(0,0)"/>
<path d="M0 0 C2 1 2 1 2 1 Z " fill="#37AD4D" transform="translate(523,488)"/>
<path d="" fill="#3DA84F" transform="translate(0,0)"/>
<path d="M0 0 C2 1 2 1 2 1 Z " fill="#36AB48" transform="translate(793,479)"/>
<path d="" fill="#37AB47" transform="translate(0,0)"/>
<path d="" fill="#3DAD4E" transform="translate(0,0)"/>
<path d="" fill="#37AA48" transform="translate(0,0)"/>
<path d="M0 0 C2 1 2 1 2 1 Z " fill="#39B04D" transform="translate(616,457)"/>
<path d="M0 0 C2 1 2 1 2 1 Z " fill="#34AB4B" transform="translate(469,456)"/>
<path d="M0 0 C2 1 2 1 2 1 Z " fill="#37AD4A" transform="translate(446,456)"/>
<path d="" fill="#39AE4A" transform="translate(0,0)"/>
<path d="M0 0 C2 1 2 1 2 1 Z " fill="#38AE4B" transform="translate(533,452)"/>
<path d="" fill="#3AAB4B" transform="translate(0,0)"/>
<path d="" fill="#3FAA51" transform="translate(0,0)"/>
<path d="M0 0 C2 1 2 1 2 1 Z " fill="#38AF4B" transform="translate(733,437)"/>
<path d="" fill="#34AC46" transform="translate(0,0)"/>
<path d="" fill="#35AA47" transform="translate(0,0)"/>
<path d="M0 0 C2 1 2 1 2 1 Z " fill="#3BAC4C" transform="translate(722,431)"/>
<path d="M0 0 C2 1 2 1 2 1 Z " fill="#34A947" transform="translate(706,422)"/>
<path d="" fill="#36AF4C" transform="translate(0,0)"/>
<path d="" fill="#35AC4B" transform="translate(0,0)"/>
<path d="M0 0 C2 1 2 1 2 1 Z " fill="#38AB48" transform="translate(691,415)"/>
<path d="M0 0 C2 1 2 1 2 1 Z " fill="#36AD48" transform="translate(670,406)"/>
<path d="M0 0 C2 1 2 1 2 1 Z " fill="#35B04B" transform="translate(550,403)"/>
<path d="M0 0 C2 1 2 1 2 1 Z " fill="#38AD48" transform="translate(641,395)"/>
<path d="" fill="#37AB49" transform="translate(0,0)"/>
<path d="M0 0 C2 1 2 1 2 1 Z " fill="#36AC4B" transform="translate(272,373)"/>
<path d="M0 0 C2 1 2 1 2 1 Z " fill="#36AA49" transform="translate(621,344)"/>
<path d="" fill="#3DAA4E" transform="translate(0,0)"/>
<path d="M0 0 C2 1 2 1 2 1 Z " fill="#3AAD4A" transform="translate(723,230)"/>
<path d="M0 0 C2 1 2 1 2 1 Z " fill="#35AC4A" transform="translate(715,230)"/>
<path d="M0 0 C2 1 2 1 2 1 Z " fill="#39AF4A" transform="translate(700,230)"/>
<path d="" fill="#3EAA4F" transform="translate(0,0)"/>
<path d="M0 0 C2 1 2 1 2 1 Z " fill="#38AC4C" transform="translate(477,215)"/>
<path d="M0 0 C2 1 2 1 2 1 Z " fill="#36AC4A" transform="translate(435,182)"/>
<path d="M0 0 C2 1 2 1 2 1 Z " fill="#37AA49" transform="translate(402,172)"/>
<path d="" fill="#7D8D7F" transform="translate(0,0)"/>
<path d="" fill="#40A84E" transform="translate(0,0)"/>
<path d="" fill="#3BA84D" transform="translate(0,0)"/>
<path d="" fill="#3CA94E" transform="translate(0,0)"/>
<path d="" fill="#3CAA4C" transform="translate(0,0)"/>
<path d="" fill="#3AA74C" transform="translate(0,0)"/>
<path d="" fill="#37A446" transform="translate(0,0)"/>
<path d="" fill="#3AAA4B" transform="translate(0,0)"/>
<path d="" fill="#38A448" transform="translate(0,0)"/>
<path d="" fill="#3DA84F" transform="translate(0,0)"/>
<path d="" fill="#3CA74F" transform="translate(0,0)"/>
<path d="" fill="#36A747" transform="translate(0,0)"/>
<path d="" fill="#39AF4B" transform="translate(0,0)"/>
<path d="" fill="#38AC47" transform="translate(0,0)"/>
<path d="" fill="#35A747" transform="translate(0,0)"/>
<path d="" fill="#33A748" transform="translate(0,0)"/>
<path d="" fill="#3BAA4D" transform="translate(0,0)"/>
<path d="" fill="#37AC4A" transform="translate(0,0)"/>
<path d="" fill="#38A749" transform="translate(0,0)"/>
<path d="" fill="#3AAC4B" transform="translate(0,0)"/>
<path d="" fill="#3CAC4E" transform="translate(0,0)"/>
<path d="" fill="#34A844" transform="translate(0,0)"/>
<path d="" fill="#39A849" transform="translate(0,0)"/>
<path d="" fill="#37AB47" transform="translate(0,0)"/>
<path d="" fill="#38AE4C" transform="translate(0,0)"/>
<path d="" fill="#2FA640" transform="translate(0,0)"/>
<path d="" fill="#35AC48" transform="translate(0,0)"/>
<path d="" fill="#36AA47" transform="translate(0,0)"/>
<path d="" fill="#3AAF4B" transform="translate(0,0)"/>
<path d="" fill="#3CAA4E" transform="translate(0,0)"/>
<path d="" fill="#38A748" transform="translate(0,0)"/>
<path d="" fill="#3BAB4C" transform="translate(0,0)"/>
<path d="" fill="#39AB49" transform="translate(0,0)"/>
<path d="" fill="#3AAE4A" transform="translate(0,0)"/>
<path d="" fill="#36A848" transform="translate(0,0)"/>
<path d="" fill="#3DAC50" transform="translate(0,0)"/>
<path d="" fill="#39AD4C" transform="translate(0,0)"/>
<path d="" fill="#3BAC4D" transform="translate(0,0)"/>
<path d="" fill="#36AD48" transform="translate(0,0)"/>
<path d="" fill="#3EA750" transform="translate(0,0)"/>
<path d="" fill="#3FA850" transform="translate(0,0)"/>
<path d="" fill="#33AB44" transform="translate(0,0)"/>
<path d="" fill="#3BA24B" transform="translate(0,0)"/>
<path d="" fill="#35A546" transform="translate(0,0)"/>
<path d="" fill="#3EA34D" transform="translate(0,0)"/>
<path d="" fill="#34AA48" transform="translate(0,0)"/>
<path d="" fill="#39AA49" transform="translate(0,0)"/>
<path d="" fill="#3DA54C" transform="translate(0,0)"/>
<path d="" fill="#36AB47" transform="translate(0,0)"/>
<path d="" fill="#38AB4A" transform="translate(0,0)"/>
<path d="" fill="#37AB4B" transform="translate(0,0)"/>
<path d="" fill="#3CB24E" transform="translate(0,0)"/>
<path d="" fill="#38AD46" transform="translate(0,0)"/>
<path d="" fill="#3AB049" transform="translate(0,0)"/>
<path d="" fill="#36AA45" transform="translate(0,0)"/>
<path d="" fill="#3BA74E" transform="translate(0,0)"/>
<path d="" fill="#3DB04F" transform="translate(0,0)"/>
<path d="" fill="#39AD4C" transform="translate(0,0)"/>
<path d="" fill="#37AA4A" transform="translate(0,0)"/>
<path d="" fill="#37AA46" transform="translate(0,0)"/>
<path d="" fill="#37AD44" transform="translate(0,0)"/>
<path d="" fill="#39A848" transform="translate(0,0)"/>
<path d="" fill="#38AC48" transform="translate(0,0)"/>
<path d="" fill="#37AB49" transform="translate(0,0)"/>
<path d="" fill="#36A947" transform="translate(0,0)"/>
<path d="" fill="#36A849" transform="translate(0,0)"/>
<path d="" fill="#37AD49" transform="translate(0,0)"/>
<path d="" fill="#33A847" transform="translate(0,0)"/>
<path d="" fill="#34AA48" transform="translate(0,0)"/>
<path d="" fill="#31A743" transform="translate(0,0)"/>
<path d="" fill="#35AA4A" transform="translate(0,0)"/>
<path d="" fill="#31A843" transform="translate(0,0)"/>
<path d="" fill="#39AC4B" transform="translate(0,0)"/>
<path d="" fill="#3AA849" transform="translate(0,0)"/>
<path d="" fill="#36AC46" transform="translate(0,0)"/>
<path d="" fill="#39AC4C" transform="translate(0,0)"/>
<path d="" fill="#36A846" transform="translate(0,0)"/>
<path d="" fill="#38AD4B" transform="translate(0,0)"/>
<path d="" fill="#38AE4C" transform="translate(0,0)"/>
<path d="" fill="#38AD4B" transform="translate(0,0)"/>
<path d="" fill="#36AD48" transform="translate(0,0)"/>
<path d="" fill="#38AE4C" transform="translate(0,0)"/>
<path d="" fill="#3FAA4E" transform="translate(0,0)"/>
<path d="" fill="#3FAD4C" transform="translate(0,0)"/>
<path d="" fill="#3AAE4B" transform="translate(0,0)"/>
<path d="" fill="#3BAC4D" transform="translate(0,0)"/>
<path d="" fill="#3CAB4D" transform="translate(0,0)"/>
<path d="" fill="#3AAC4C" transform="translate(0,0)"/>
<path d="" fill="#37AD49" transform="translate(0,0)"/>
<path d="" fill="#39A949" transform="translate(0,0)"/>
<path d="" fill="#3BAE4D" transform="translate(0,0)"/>
<path d="" fill="#36A847" transform="translate(0,0)"/>
<path d="" fill="#3BA94B" transform="translate(0,0)"/>
<path d="" fill="#35AD49" transform="translate(0,0)"/>
<path d="" fill="#38AB4A" transform="translate(0,0)"/>
<path d="" fill="#39AE4D" transform="translate(0,0)"/>
<path d="" fill="#39AE4B" transform="translate(0,0)"/>
<path d="" fill="#3CAC4C" transform="translate(0,0)"/>
<path d="" fill="#38AF49" transform="translate(0,0)"/>
<path d="" fill="#39A245" transform="translate(0,0)"/>
<path d="" fill="#39AB4B" transform="translate(0,0)"/>
<path d="" fill="#3BAE4E" transform="translate(0,0)"/>
<path d="" fill="#3AAF4C" transform="translate(0,0)"/>
<path d="" fill="#3BAB4C" transform="translate(0,0)"/>
<path d="" fill="#3CAC4F" transform="translate(0,0)"/>
<path d="" fill="#39AE4C" transform="translate(0,0)"/>
<path d="" fill="#3DAF4C" transform="translate(0,0)"/>
<path d="" fill="#36AA49" transform="translate(0,0)"/>
<path d="" fill="#39AB4A" transform="translate(0,0)"/>
<path d="" fill="#34AB47" transform="translate(0,0)"/>
<path d="" fill="#33A442" transform="translate(0,0)"/>
<path d="" fill="#39AC4A" transform="translate(0,0)"/>
<path d="" fill="#3BAD4D" transform="translate(0,0)"/>
<path d="" fill="#39AD4A" transform="translate(0,0)"/>
<path d="" fill="#39AD4E" transform="translate(0,0)"/>
<path d="" fill="#37AD4A" transform="translate(0,0)"/>
<path d="" fill="#39AB47" transform="translate(0,0)"/>
<path d="" fill="#3DAB4B" transform="translate(0,0)"/>
<path d="" fill="#3CA94A" transform="translate(0,0)"/>
<path d="" fill="#38AE4A" transform="translate(0,0)"/>
<path d="" fill="#38A849" transform="translate(0,0)"/>
<path d="" fill="#35AA48" transform="translate(0,0)"/>
<path d="" fill="#39AE4B" transform="translate(0,0)"/>
<path d="" fill="#38AE49" transform="translate(0,0)"/>
<path d="" fill="#31A843" transform="translate(0,0)"/>
<path d="" fill="#32AB48" transform="translate(0,0)"/>
<path d="" fill="#34AA47" transform="translate(0,0)"/>
<path d="" fill="#34AC46" transform="translate(0,0)"/>
<path d="" fill="#3BAB4A" transform="translate(0,0)"/>
<path d="" fill="#31A645" transform="translate(0,0)"/>
<path d="" fill="#39AB48" transform="translate(0,0)"/>
<path d="" fill="#36A74C" transform="translate(0,0)"/>
<path d="" fill="#34AB48" transform="translate(0,0)"/>
<path d="" fill="#38AD4D" transform="translate(0,0)"/>
<path d="" fill="#34AA48" transform="translate(0,0)"/>
<path d="" fill="#35AA45" transform="translate(0,0)"/>
<path d="" fill="#37AD4B" transform="translate(0,0)"/>
<path d="" fill="#30A943" transform="translate(0,0)"/>
<path d="" fill="#32AA46" transform="translate(0,0)"/>
<path d="" fill="#3AAE4B" transform="translate(0,0)"/>
<path d="" fill="#37AB47" transform="translate(0,0)"/>
<path d="" fill="#3AAE4A" transform="translate(0,0)"/>
<path d="" fill="#36AE4A" transform="translate(0,0)"/>
<path d="" fill="#35AB48" transform="translate(0,0)"/>
<path d="" fill="#39AD47" transform="translate(0,0)"/>
<path d="" fill="#39A84B" transform="translate(0,0)"/>
<path d="" fill="#3DB14E" transform="translate(0,0)"/>
<path d="" fill="#3AAA48" transform="translate(0,0)"/>
<path d="" fill="#41AA55" transform="translate(0,0)"/>
<path d="" fill="#3BA848" transform="translate(0,0)"/>
<path d="" fill="#3AA750" transform="translate(0,0)"/>
<path d="" fill="#41AA53" transform="translate(0,0)"/>
<path d="" fill="#35AB49" transform="translate(0,0)"/>
<path d="" fill="#3FA854" transform="translate(0,0)"/>
<path d="" fill="#3CAB50" transform="translate(0,0)"/>
<path d="" fill="#39B04F" transform="translate(0,0)"/>
<path d="" fill="#33A849" transform="translate(0,0)"/>
<path d="" fill="#3BAE4E" transform="translate(0,0)"/>
<path d="" fill="#38AD4C" transform="translate(0,0)"/>
<path d="" fill="#38AC4D" transform="translate(0,0)"/>
<path d="" fill="#3BB04B" transform="translate(0,0)"/>
<path d="" fill="#3AAB4C" transform="translate(0,0)"/>
<path d="" fill="#38A44C" transform="translate(0,0)"/>
<path d="" fill="#37AF4C" transform="translate(0,0)"/>
<path d="" fill="#38AC4E" transform="translate(0,0)"/>
<path d="" fill="#38A848" transform="translate(0,0)"/>
<path d="" fill="#39AC4E" transform="translate(0,0)"/>
<path d="" fill="#33A946" transform="translate(0,0)"/>
<path d="" fill="#38AE4E" transform="translate(0,0)"/>
<path d="" fill="#3CA94B" transform="translate(0,0)"/>
<path d="" fill="#39AD4B" transform="translate(0,0)"/>
<path d="" fill="#3CAC4D" transform="translate(0,0)"/>
<path d="" fill="#36AD4A" transform="translate(0,0)"/>
<path d="" fill="#39AC48" transform="translate(0,0)"/>
<path d="" fill="#3AA748" transform="translate(0,0)"/>
<path d="" fill="#37AE47" transform="translate(0,0)"/>
<path d="" fill="#31A442" transform="translate(0,0)"/>
<path d="" fill="#38A446" transform="translate(0,0)"/>
<path d="" fill="#3AAD49" transform="translate(0,0)"/>
<path d="" fill="#3CAB4C" transform="translate(0,0)"/>
<path d="" fill="#39A149" transform="translate(0,0)"/>
<path d="" fill="#38AF4A" transform="translate(0,0)"/>
<path d="" fill="#39A84A" transform="translate(0,0)"/>
<path d="" fill="#35A447" transform="translate(0,0)"/>
<path d="" fill="#3AAE4A" transform="translate(0,0)"/>
<path d="" fill="#39AA4A" transform="translate(0,0)"/>
<path d="" fill="#34A548" transform="translate(0,0)"/>
<path d="" fill="#39AF4E" transform="translate(0,0)"/>
<path d="" fill="#39AB4A" transform="translate(0,0)"/>
<path d="" fill="#3AAD4C" transform="translate(0,0)"/>
<path d="" fill="#3DAC51" transform="translate(0,0)"/>
<path d="" fill="#38AA4B" transform="translate(0,0)"/>
<path d="" fill="#34A643" transform="translate(0,0)"/>
<path d="" fill="#37AC47" transform="translate(0,0)"/>
<path d="" fill="#36AE4A" transform="translate(0,0)"/>
<path d="" fill="#37AA4B" transform="translate(0,0)"/>
<path d="" fill="#3BA74B" transform="translate(0,0)"/>
<path d="" fill="#34AB48" transform="translate(0,0)"/>
<path d="" fill="#39A94B" transform="translate(0,0)"/>
<path d="" fill="#38AD4B" transform="translate(0,0)"/>
<path d="" fill="#37AE4B" transform="translate(0,0)"/>
<path d="" fill="#2FA444" transform="translate(0,0)"/>
<path d="" fill="#39A94A" transform="translate(0,0)"/>
<path d="" fill="#37AE4D" transform="translate(0,0)"/>
<path d="" fill="#37AD48" transform="translate(0,0)"/>
<path d="" fill="#3DA64B" transform="translate(0,0)"/>
<path d="" fill="#39AB49" transform="translate(0,0)"/>
<path d="" fill="#34AA48" transform="translate(0,0)"/>
<path d="" fill="#33AB46" transform="translate(0,0)"/>
<path d="" fill="#36AE4D" transform="translate(0,0)"/>
<path d="" fill="#38AE4A" transform="translate(0,0)"/>
<path d="" fill="#35AA4A" transform="translate(0,0)"/>
<path d="" fill="#3BA74D" transform="translate(0,0)"/>
<path d="" fill="#3CB04D" transform="translate(0,0)"/>
<path d="" fill="#3DA84E" transform="translate(0,0)"/>
<path d="" fill="#3DAA50" transform="translate(0,0)"/>
<path d="" fill="#39AD4A" transform="translate(0,0)"/>
<path d="" fill="#37B04C" transform="translate(0,0)"/>
<path d="" fill="#38AB4B" transform="translate(0,0)"/>
<path d="" fill="#38AF4C" transform="translate(0,0)"/>
<path d="" fill="#3DAB4F" transform="translate(0,0)"/>
<path d="" fill="#38AA49" transform="translate(0,0)"/>
<path d="" fill="#36A94A" transform="translate(0,0)"/>
<path d="" fill="#3BAF4D" transform="translate(0,0)"/>
<path d="" fill="#43A951" transform="translate(0,0)"/>
<path d="" fill="#37AF4D" transform="translate(0,0)"/>
<path d="" fill="#34AD46" transform="translate(0,0)"/>
<path d="" fill="#3CAE50" transform="translate(0,0)"/>
<path d="" fill="#39B14F" transform="translate(0,0)"/>
<path d="" fill="#3EAB4E" transform="translate(0,0)"/>
<path d="" fill="#39AA49" transform="translate(0,0)"/>
<path d="" fill="#42A852" transform="translate(0,0)"/>
<path d="" fill="#3AA949" transform="translate(0,0)"/>
<path d="" fill="#37A446" transform="translate(0,0)"/>
<path d="" fill="#41AA50" transform="translate(0,0)"/>
<path d="" fill="#38AD4B" transform="translate(0,0)"/>
<path d="" fill="#37AC49" transform="translate(0,0)"/>
<path d="" fill="#32AA46" transform="translate(0,0)"/>
<path d="" fill="#37AA4A" transform="translate(0,0)"/>
<path d="" fill="#32A544" transform="translate(0,0)"/>
<path d="" fill="#38AF4C" transform="translate(0,0)"/>
<path d="" fill="#37AA48" transform="translate(0,0)"/>
<path d="" fill="#3EA94F" transform="translate(0,0)"/>
<path d="" fill="#3DA64D" transform="translate(0,0)"/>
<path d="" fill="#34A947" transform="translate(0,0)"/>
<path d="" fill="#38AC4A" transform="translate(0,0)"/>
<path d="" fill="#39B14D" transform="translate(0,0)"/>
<path d="" fill="#38B04E" transform="translate(0,0)"/>
<path d="" fill="#39AF4D" transform="translate(0,0)"/>
<path d="" fill="#39B04E" transform="translate(0,0)"/>
<path d="" fill="#38AC4C" transform="translate(0,0)"/>
<path d="" fill="#38AE4A" transform="translate(0,0)"/>
<path d="" fill="#39AD49" transform="translate(0,0)"/>
<path d="" fill="#38AF4B" transform="translate(0,0)"/>
<path d="" fill="#3AAF4E" transform="translate(0,0)"/>
<path d="" fill="#41A951" transform="translate(0,0)"/>
<path d="" fill="#39AD4C" transform="translate(0,0)"/>
<path d="" fill="#3CAD4B" transform="translate(0,0)"/>
<path d="" fill="#3AAD4D" transform="translate(0,0)"/>
<path d="" fill="#3EA94F" transform="translate(0,0)"/>
<path d="" fill="#35AD49" transform="translate(0,0)"/>
<path d="" fill="#39A94C" transform="translate(0,0)"/>
<path d="" fill="#36AA49" transform="translate(0,0)"/>
<path d="" fill="#37AF4B" transform="translate(0,0)"/>
<path d="" fill="#38A94A" transform="translate(0,0)"/>
<path d="" fill="#38B04B" transform="translate(0,0)"/>
<path d="" fill="#35AC4A" transform="translate(0,0)"/>
<path d="" fill="#36AB48" transform="translate(0,0)"/>
<path d="" fill="#39A646" transform="translate(0,0)"/>
<path d="" fill="#37AB4A" transform="translate(0,0)"/>
<path d="" fill="#38AC4A" transform="translate(0,0)"/>
<path d="" fill="#32A947" transform="translate(0,0)"/>
<path d="" fill="#3AAC49" transform="translate(0,0)"/>
<path d="" fill="#38AA47" transform="translate(0,0)"/>
<path d="" fill="#3AAC4F" transform="translate(0,0)"/>
<path d="" fill="#34AA45" transform="translate(0,0)"/>
<path d="" fill="#36AE4A" transform="translate(0,0)"/>
<path d="" fill="#37B04C" transform="translate(0,0)"/>
<path d="" fill="#3AAD4D" transform="translate(0,0)"/>
<path d="" fill="#36AB4A" transform="translate(0,0)"/>
<path d="" fill="#41AA53" transform="translate(0,0)"/>
<path d="" fill="#36AD4A" transform="translate(0,0)"/>
<path d="" fill="#36AB48" transform="translate(0,0)"/>
<path d="" fill="#38AF4B" transform="translate(0,0)"/>
<path d="" fill="#36AB48" transform="translate(0,0)"/>
<path d="" fill="#32A845" transform="translate(0,0)"/>
<path d="" fill="#37AE49" transform="translate(0,0)"/>
<path d="" fill="#41AC52" transform="translate(0,0)"/>
<path d="" fill="#37AF49" transform="translate(0,0)"/>
<path d="" fill="#37AD4C" transform="translate(0,0)"/>
<path d="" fill="#3AAF4C" transform="translate(0,0)"/>
<path d="" fill="#36A94A" transform="translate(0,0)"/>
<path d="" fill="#34AB48" transform="translate(0,0)"/>
<path d="" fill="#35A848" transform="translate(0,0)"/>
<path d="" fill="#37AE4A" transform="translate(0,0)"/>
<path d="" fill="#36AA4C" transform="translate(0,0)"/>
<path d="" fill="#38B24C" transform="translate(0,0)"/>
<path d="" fill="#3AAF4C" transform="translate(0,0)"/>
<path d="" fill="#38AD48" transform="translate(0,0)"/>
<path d="" fill="#3DB24E" transform="translate(0,0)"/>
<path d="" fill="#3BA54B" transform="translate(0,0)"/>
<path d="" fill="#33A946" transform="translate(0,0)"/>
<path d="" fill="#39AD4B" transform="translate(0,0)"/>
<path d="" fill="#37AF4D" transform="translate(0,0)"/>
<path d="" fill="#34AE47" transform="translate(0,0)"/>
<path d="" fill="#35AB48" transform="translate(0,0)"/>
<path d="" fill="#39AD4B" transform="translate(0,0)"/>
<path d="" fill="#3AAC48" transform="translate(0,0)"/>
<path d="" fill="#38AA4A" transform="translate(0,0)"/>
<path d="" fill="#3AAC4B" transform="translate(0,0)"/>
<path d="" fill="#36AA47" transform="translate(0,0)"/>
<path d="" fill="#32AB45" transform="translate(0,0)"/>
<path d="" fill="#37AC4A" transform="translate(0,0)"/>
<path d="" fill="#35AA47" transform="translate(0,0)"/>
<path d="" fill="#33AB45" transform="translate(0,0)"/>
<path d="" fill="#39AE4F" transform="translate(0,0)"/>
<path d="" fill="#38AD4C" transform="translate(0,0)"/>
<path d="" fill="#38AE4B" transform="translate(0,0)"/>
<path d="" fill="#36AC49" transform="translate(0,0)"/>
<path d="" fill="#34AC48" transform="translate(0,0)"/>
<path d="" fill="#35A844" transform="translate(0,0)"/>
<path d="" fill="#38A549" transform="translate(0,0)"/>
<path d="" fill="#37AE49" transform="translate(0,0)"/>
<path d="" fill="#3BA64C" transform="translate(0,0)"/>
<path d="" fill="#31A944" transform="translate(0,0)"/>
<path d="" fill="#36AE4A" transform="translate(0,0)"/>
<path d="" fill="#3AAD4B" transform="translate(0,0)"/>
<path d="" fill="#39AE4D" transform="translate(0,0)"/>
<path d="" fill="#38AF4E" transform="translate(0,0)"/>
<path d="" fill="#38AF4B" transform="translate(0,0)"/>
<path d="" fill="#36AA48" transform="translate(0,0)"/>
<path d="" fill="#36AD49" transform="translate(0,0)"/>
<path d="" fill="#38AA4A" transform="translate(0,0)"/>
<path d="" fill="#33A749" transform="translate(0,0)"/>
<path d="" fill="#41A750" transform="translate(0,0)"/>
<path d="" fill="#39B04B" transform="translate(0,0)"/>
<path d="" fill="#36AC46" transform="translate(0,0)"/>
<path d="" fill="#38AD4B" transform="translate(0,0)"/>
<path d="" fill="#31A046" transform="translate(0,0)"/>
<path d="" fill="#38A74B" transform="translate(0,0)"/>
<path d="" fill="#3AA84C" transform="translate(0,0)"/>
<path d="" fill="#3EA64E" transform="translate(0,0)"/>
<path d="" fill="#37B04D" transform="translate(0,0)"/>
<path d="" fill="#38AE4A" transform="translate(0,0)"/>
<path d="" fill="#35AD46" transform="translate(0,0)"/>
<path d="" fill="#34AD47" transform="translate(0,0)"/>
<path d="" fill="#36AF49" transform="translate(0,0)"/>
<path d="" fill="#38AB4A" transform="translate(0,0)"/>
<path d="" fill="#38AE4A" transform="translate(0,0)"/>
<path d="" fill="#37AD4A" transform="translate(0,0)"/>
<path d="" fill="#35AA48" transform="translate(0,0)"/>
<path d="" fill="#38A849" transform="translate(0,0)"/>
<path d="" fill="#36AB48" transform="translate(0,0)"/>
<path d="" fill="#39AF49" transform="translate(0,0)"/>
<path d="" fill="#39B04B" transform="translate(0,0)"/>
<path d="" fill="#38AC4A" transform="translate(0,0)"/>
<path d="" fill="#3BAC4B" transform="translate(0,0)"/>
<path d="" fill="#38AC4B" transform="translate(0,0)"/>
<path d="" fill="#38AE4D" transform="translate(0,0)"/>
<path d="" fill="#35AC48" transform="translate(0,0)"/>
<path d="" fill="#36AA49" transform="translate(0,0)"/>
<path d="" fill="#37AE49" transform="translate(0,0)"/>
<path d="" fill="#36AC49" transform="translate(0,0)"/>
<path d="" fill="#37AD4A" transform="translate(0,0)"/>
<path d="" fill="#37AB49" transform="translate(0,0)"/>
<path d="" fill="#39AF4B" transform="translate(0,0)"/>
<path d="" fill="#39AD4B" transform="translate(0,0)"/>
<path d="" fill="#3AAB4B" transform="translate(0,0)"/>
<path d="" fill="#37A748" transform="translate(0,0)"/>
<path d="" fill="#37AA49" transform="translate(0,0)"/>
<path d="" fill="#39AC4C" transform="translate(0,0)"/>
<path d="" fill="#3AAD4E" transform="translate(0,0)"/>
<path d="" fill="#33AA4A" transform="translate(0,0)"/>
<path d="" fill="#35AA47" transform="translate(0,0)"/>
<path d="" fill="#37AD4A" transform="translate(0,0)"/>
<path d="" fill="#36AC4A" transform="translate(0,0)"/>
<path d="" fill="#38AD49" transform="translate(0,0)"/>
<path d="" fill="#36A848" transform="translate(0,0)"/>
<path d="" fill="#36AB48" transform="translate(0,0)"/>
<path d="" fill="#36AB49" transform="translate(0,0)"/>
<path d="" fill="#33A946" transform="translate(0,0)"/>
<path d="" fill="#37AD47" transform="translate(0,0)"/>
<path d="" fill="#38AE4D" transform="translate(0,0)"/>
<path d="" fill="#3EAE4E" transform="translate(0,0)"/>
<path d="" fill="#3CAF4E" transform="translate(0,0)"/>
<path d="" fill="#41AA4F" transform="translate(0,0)"/>
<path d="" fill="#3CAF4F" transform="translate(0,0)"/>
<path d="" fill="#3CA850" transform="translate(0,0)"/>
<path d="" fill="#3BB04E" transform="translate(0,0)"/>
<path d="" fill="#36AC48" transform="translate(0,0)"/>
<path d="" fill="#34A84A" transform="translate(0,0)"/>
<path d="" fill="#39AD4A" transform="translate(0,0)"/>
<path d="" fill="#36AB49" transform="translate(0,0)"/>
<path d="" fill="#38AC4A" transform="translate(0,0)"/>
<path d="" fill="#32A947" transform="translate(0,0)"/>
<path d="" fill="#3DAB50" transform="translate(0,0)"/>
<path d="" fill="#38AE4C" transform="translate(0,0)"/>
<path d="" fill="#3CA84E" transform="translate(0,0)"/>
<path d="" fill="#32A544" transform="translate(0,0)"/>
<path d="" fill="#32A947" transform="translate(0,0)"/>
<path d="" fill="#36AE4A" transform="translate(0,0)"/>
<path d="" fill="#38A548" transform="translate(0,0)"/>
<path d="" fill="#3AAC4E" transform="translate(0,0)"/>
<path d="" fill="#36AD49" transform="translate(0,0)"/>
<path d="" fill="#36AE49" transform="translate(0,0)"/>
<path d="" fill="#35A949" transform="translate(0,0)"/>
<path d="" fill="#3BAC4C" transform="translate(0,0)"/>
<path d="" fill="#37AE4C" transform="translate(0,0)"/>
<path d="" fill="#38AC4D" transform="translate(0,0)"/>
<path d="" fill="#3DAC4D" transform="translate(0,0)"/>
<path d="" fill="#39A84B" transform="translate(0,0)"/>
<path d="" fill="#38AB4A" transform="translate(0,0)"/>
<path d="" fill="#3DAC4B" transform="translate(0,0)"/>
<path d="" fill="#39AE4B" transform="translate(0,0)"/>
<path d="" fill="#38AC4A" transform="translate(0,0)"/>
<path d="" fill="#44A950" transform="translate(0,0)"/>
<path d="" fill="#3AA74F" transform="translate(0,0)"/>
<path d="" fill="#3DAC4E" transform="translate(0,0)"/>
<path d="" fill="#35AE4C" transform="translate(0,0)"/>
<path d="" fill="#37AA4B" transform="translate(0,0)"/>
<path d="" fill="#39AD4C" transform="translate(0,0)"/>
<path d="" fill="#31A947" transform="translate(0,0)"/>
<path d="" fill="#39AD4C" transform="translate(0,0)"/>
<path d="" fill="#38AC4B" transform="translate(0,0)"/>
<path d="" fill="#32A843" transform="translate(0,0)"/>
<path d="" fill="#3AAF4C" transform="translate(0,0)"/>
<path d="" fill="#38AD4D" transform="translate(0,0)"/>
<path d="" fill="#39AD4D" transform="translate(0,0)"/>
<path d="" fill="#35AA48" transform="translate(0,0)"/>
<path d="" fill="#35AA49" transform="translate(0,0)"/>
<path d="" fill="#3CAA4D" transform="translate(0,0)"/>
<path d="" fill="#38AC49" transform="translate(0,0)"/>
<path d="" fill="#36A748" transform="translate(0,0)"/>
<path d="" fill="#35AA47" transform="translate(0,0)"/>
<path d="" fill="#33AD4A" transform="translate(0,0)"/>
<path d="" fill="#37AF4A" transform="translate(0,0)"/>
<path d="" fill="#3DA74A" transform="translate(0,0)"/>
<path d="" fill="#3FAC4F" transform="translate(0,0)"/>
<path d="" fill="#39AC49" transform="translate(0,0)"/>
<path d="" fill="#37A94C" transform="translate(0,0)"/>
<path d="" fill="#3CAC53" transform="translate(0,0)"/>
<path d="" fill="#37AE4A" transform="translate(0,0)"/>
<path d="" fill="#34A845" transform="translate(0,0)"/>
<path d="" fill="#42A950" transform="translate(0,0)"/>
<path d="" fill="#3AA94C" transform="translate(0,0)"/>
<path d="" fill="#3FAA51" transform="translate(0,0)"/>
<path d="" fill="#35A64A" transform="translate(0,0)"/>
<path d="" fill="#36AB4B" transform="translate(0,0)"/>
<path d="" fill="#3CA94F" transform="translate(0,0)"/>
<path d="" fill="#3AA94F" transform="translate(0,0)"/>
<path d="" fill="#3AA94D" transform="translate(0,0)"/>
<path d="" fill="#3FAD4E" transform="translate(0,0)"/>
<path d="" fill="#3AA94B" transform="translate(0,0)"/>
</svg>
